<?xml version="1.0" encoding="UTF-8" standalone="no"?>
<!-- Created with Inkscape (http://www.inkscape.org/) -->

<svg
   xmlns:osb="http://www.openswatchbook.org/uri/2009/osb"
   xmlns:dc="http://purl.org/dc/elements/1.1/"
   xmlns:cc="http://creativecommons.org/ns#"
   xmlns:rdf="http://www.w3.org/1999/02/22-rdf-syntax-ns#"
   xmlns:svg="http://www.w3.org/2000/svg"
   xmlns="http://www.w3.org/2000/svg"
   xmlns:sodipodi="http://sodipodi.sourceforge.net/DTD/sodipodi-0.dtd"
   xmlns:inkscape="http://www.inkscape.org/namespaces/inkscape"
   width="180"
   height="180"
   viewBox="0 0 180 180"
   id="svg2"
   version="1.1"
   inkscape:version="0.91 r"
   sodipodi:docname="client2.svg">
  <defs
     id="defs4">
    <linearGradient
       id="linearGradient5639"
       osb:paint="solid">
      <stop
         style="stop-color:#47a3f5;stop-opacity:1;"
         offset="0"
         id="stop5641" />
    </linearGradient>
  </defs>
  <sodipodi:namedview
     id="base"
     pagecolor="#ffffff"
     bordercolor="#666666"
     borderopacity="1.0"
     inkscape:pageopacity="0.0"
     inkscape:pageshadow="2"
     inkscape:zoom="1"
     inkscape:cx="-9.4814313"
     inkscape:cy="194.72902"
     inkscape:document-units="px"
     inkscape:current-layer="layer1"
     showgrid="false"
     inkscape:window-width="1920"
     inkscape:window-height="1028"
     inkscape:window-x="0"
     inkscape:window-y="0"
     inkscape:window-maximized="1"
     units="px" />
  <metadata
     id="metadata7">
    <rdf:RDF>
      <cc:Work
         rdf:about="">
        <dc:format>image/svg+xml</dc:format>
        <dc:type
           rdf:resource="http://purl.org/dc/dcmitype/StillImage" />
        <dc:title></dc:title>
      </cc:Work>
    </rdf:RDF>
  </metadata>
  <g
     inkscape:label="Layer 1"
     inkscape:groupmode="layer"
     id="layer1"
     transform="translate(0,-872.36216)">
    <path
       id="path5667"
       style="fill:#47a3f5;fill-opacity:1;fill-rule:nonzero;stroke:#000000;stroke-width:1.38937438;stroke-opacity:1"
       d="m 153.80647,967.12845 c -2.2311,-0.81772 -4.48995,-2.63011 -6.60516,-5.29955 -4.98062,-6.28566 -6.50328,-14.08626 -3.9451,-20.2105 2.22768,-5.33299 7.61545,-9.49347 15.4551,-11.93466 1.76193,-0.54863 6.10014,-1.54665 7.91213,-1.8202 l 0.8614,-0.13002 -1.29142,9.6066 c -0.71028,5.28363 -1.30483,9.62157 -1.32123,9.63982 -0.0163,0.0185 -0.75404,-0.17436 -1.6392,-0.42813 -6.65133,-1.90677 -12.95862,-1.14751 -14.53679,1.74991 -0.42416,0.77872 -0.43979,2.16297 -0.0357,3.15944 0.72055,1.77677 3.54976,4.32499 6.88079,6.19739 1.71933,0.96647 5.7105,2.89276 5.99356,2.89276 0.21943,0 0.20653,0.29766 -0.0611,1.40696 -0.61092,2.53306 -1.85544,4.41698 -3.39712,5.14263 -1.05253,0.49539 -2.96015,0.50769 -4.27023,0.0278 z m -15.53809,3.02668 c -3.44625,-8.72882 -9.31208,-23.5823 -13.03518,-33.00785 -3.72308,-9.42556 -6.73613,-17.17904 -6.69566,-17.22994 0.0404,-0.0508 2.36193,1.64743 5.15878,3.77414 l 5.08519,3.86671 10.49137,26.07826 c 5.77026,14.34303 10.5042,26.12826 10.51989,26.18917 0.0158,0.0605 -1.16107,1.48082 -2.61501,3.15529 l -2.64346,3.04462 -6.26592,-15.8704 z m -3.38377,22.54918 c -3.01893,-5.97542 -11.82813,-27.27136 -27.48264,-66.43832 -4.7181,-11.80445 -8.5431,-21.50705 -8.49996,-21.56132 0.0432,-0.0542 3.07953,2.4193 6.74754,5.49674 l 6.66911,5.59532 2.22527,5.45723 c 9.26765,22.72754 23.67219,58.73905 25.66854,64.17138 l 0.95659,2.60313 -0.74257,0.86774 c -0.54737,0.63946 -5.03878,4.24197 -5.28885,4.24197 -0.0186,0 -0.13247,-0.19524 -0.25303,-0.43387 z m -22.8536,-0.66202 c -3.16484,-5.19083 -11.81793,-32.06688 -15.30239,-32.54526 -8.467515,-0.3933 -16.435511,-3.1353 -24.143312,-3.28419 -0.320084,0.67104 -0.691125,1.31059 -1.058689,1.92822 -6.838243,10.44554 -12.422872,23.78304 -18.641524,33.34714 -4.419521,0.64599 -10.316193,1.02929 -16.325768,0.0875 -0.0509,-0.0637 1.401784,-3.70824 3.228207,-8.09855 11.364495,-26.6358 23.258376,-55.636 33.747822,-80.09732 5.932609,-0.0332 11.968298,-0.64854 17.877094,0.0692 5.10927,8.39841 8.36759,17.93015 12.04478,26.59305 8.09588,18.60345 15.58256,37.4606 22.82401,53.84038 0.59391,1.15711 3.55299,8.52908 3.46697,8.63735 -0.0595,0.0746 -3.98997,0.16359 -8.73447,0.19716 l -8.62635,0.0604 -0.35638,-0.73597 z M 89.797802,915.95318 c -3.028579,1.14625 -10.376196,2.72086 -11.787622,4.54874 -1.715509,9.22081 -3.365855,15.8687 -4.997099,24.33864 7.150892,2.66812 14.072394,5.99281 21.705179,7.93684 l 0.53648,-0.0352 c -1.941106,-12.25725 -3.999575,-26.0813 -5.456938,-36.78887 z"
       inkscape:connector-curvature="0" />
    <path
       style="fill:none;fill-rule:evenodd;stroke:#000000;stroke-width:0.99431682px;stroke-linecap:butt;stroke-linejoin:miter;stroke-opacity:1"
       d="m 6.904211,992.98482 20.014946,0.50631 z"
       id="path4275"
       inkscape:connector-curvature="0" />
    <path
       style="fill:none;fill-rule:evenodd;stroke:#000000;stroke-width:0.99431682px;stroke-linecap:butt;stroke-linejoin:miter;stroke-opacity:1"
       d="m 35.004005,999.31302 0.428061,20.76028 z"
       id="path4275-6"
       inkscape:connector-curvature="0" />
    <path
       style="fill:none;fill-rule:evenodd;stroke:#000000;stroke-width:1.19976175px;stroke-linecap:butt;stroke-linejoin:miter;stroke-opacity:1"
       d="m 34.868228,1003.9548 130.954082,0.1127 z"
       id="path4275-0"
       inkscape:connector-curvature="0" />
    <path
       style="fill:none;fill-rule:evenodd;stroke:#000000;stroke-width:1.03972828px;stroke-linecap:butt;stroke-linejoin:miter;stroke-opacity:1"
       d="m 21.31143,903.7434 -0.0124,89.56161 z"
       id="path4275-9"
       inkscape:connector-curvature="0" />
    <path
       style="fill:none;fill-rule:evenodd;stroke:#000000;stroke-width:0.99431682px;stroke-linecap:butt;stroke-linejoin:miter;stroke-opacity:1"
       d="m 8.612805,903.11426 20.014944,0.50632 z"
       id="path4275-98"
       inkscape:connector-curvature="0" />
    <path
       style="fill:none;fill-rule:evenodd;stroke:#000000;stroke-width:0.99431682px;stroke-linecap:butt;stroke-linejoin:miter;stroke-opacity:1"
       d="m 165.8334,996.78146 0.42806,20.76034 z"
       id="path4275-6-6"
       inkscape:connector-curvature="0" />
    <text
       xml:space="preserve"
       style="font-style:normal;font-weight:normal;font-size:40px;line-height:125%;font-family:sans-serif;letter-spacing:0px;word-spacing:0px;fill:#000000;fill-opacity:1;stroke:none;stroke-width:1px;stroke-linecap:butt;stroke-linejoin:miter;stroke-opacity:1"
       x="-97.22718"
       y="952.6601"
       id="text4331"
       sodipodi:linespacing="125%"><tspan
         sodipodi:role="line"
         id="tspan4333"
         x="-97.22718"
         y="952.6601" /></text>
    <text
       xml:space="preserve"
       style="font-style:normal;font-variant:normal;font-weight:normal;font-stretch:normal;font-size:19.88633728px;line-height:100%;font-family:sans-serif;-inkscape-font-specification:'sans-serif, Normal';text-align:start;letter-spacing:0px;word-spacing:0px;writing-mode:lr-tb;text-anchor:start;fill:#000000;fill-opacity:1;stroke:none;stroke-width:1px;stroke-linecap:butt;stroke-linejoin:miter;stroke-opacity:1"
       x="91.172485"
       y="1005.2996"
       id="text4335"
       sodipodi:linespacing="100%"
       transform="scale(0.98191914,1.0184138)"><tspan
         sodipodi:role="line"
         id="tspan4363"
         x="91.172485"
         y="1005.2996">22</tspan></text>
    <text
       xml:space="preserve"
       style="font-style:normal;font-weight:normal;font-size:39.77267456px;line-height:100%;font-family:sans-serif;letter-spacing:0px;word-spacing:0px;fill:#000000;fill-opacity:1;stroke:none;stroke-width:1px;stroke-linecap:butt;stroke-linejoin:miter;stroke-opacity:1"
       x="-941.30579"
       y="20.088463"
       id="text4339"
       sodipodi:linespacing="100%"
       transform="matrix(0.00300262,-1.018409,0.98191457,0.00311422,0,0)"><tspan
         sodipodi:role="line"
         id="tspan4353"
         style="font-style:normal;font-variant:normal;font-weight:normal;font-stretch:normal;font-size:19.88633728px;line-height:100%;font-family:sans-serif;-inkscape-font-specification:'sans-serif, Normal';text-align:start;writing-mode:lr-tb;text-anchor:start"
         x="-941.30579"
         y="20.088463">11</tspan></text>
    <flowRoot
       xml:space="preserve"
       id="flowRoot4343"
       style="fill:black;stroke:none;stroke-opacity:1;stroke-width:1px;stroke-linejoin:miter;stroke-linecap:butt;fill-opacity:1;font-family:sans-serif;font-style:normal;font-weight:normal;font-size:40px;line-height:125%;letter-spacing:0px;word-spacing:0px"><flowRegion
         id="flowRegion4345"><rect
           id="rect4347"
           width="89.095451"
           height="46.669048"
           x="-116.31907"
           y="-37.788887" /></flowRegion><flowPara
         id="flowPara4349"></flowPara></flowRoot>    <flowRoot
       xml:space="preserve"
       id="flowRoot4355"
       style="fill:black;stroke:none;stroke-opacity:1;stroke-width:1px;stroke-linejoin:miter;stroke-linecap:butt;fill-opacity:1;font-family:sans-serif;font-style:normal;font-weight:normal;font-size:40px;line-height:125%;letter-spacing:0px;word-spacing:0px"><flowRegion
         id="flowRegion4357"><rect
           id="rect4359"
           width="66.46804"
           height="63.63961"
           x="-103.23759"
           y="83.126373" /></flowRegion><flowPara
         id="flowPara4361"></flowPara></flowRoot>  </g>
</svg>
