<?xml version="1.0" encoding="UTF-8" standalone="no"?>
<!-- Created with Inkscape (http://www.inkscape.org/) -->

<svg
   xmlns:osb="http://www.openswatchbook.org/uri/2009/osb"
   xmlns:dc="http://purl.org/dc/elements/1.1/"
   xmlns:cc="http://creativecommons.org/ns#"
   xmlns:rdf="http://www.w3.org/1999/02/22-rdf-syntax-ns#"
   xmlns:svg="http://www.w3.org/2000/svg"
   xmlns="http://www.w3.org/2000/svg"
   xmlns:sodipodi="http://sodipodi.sourceforge.net/DTD/sodipodi-0.dtd"
   xmlns:inkscape="http://www.inkscape.org/namespaces/inkscape"
   width="180"
   height="180"
   viewBox="0 0 180 180"
   id="svg2"
   version="1.1"
   inkscape:version="0.91 r"
   sodipodi:docname="client4.svg">
  <defs
     id="defs4">
    <linearGradient
       id="linearGradient5639"
       osb:paint="solid">
      <stop
         style="stop-color:#47a3f5;stop-opacity:1;"
         offset="0"
         id="stop5641" />
    </linearGradient>
  </defs>
  <sodipodi:namedview
     id="base"
     pagecolor="#ffffff"
     bordercolor="#666666"
     borderopacity="1.0"
     inkscape:pageopacity="0.0"
     inkscape:pageshadow="2"
     inkscape:zoom="2.8284271"
     inkscape:cx="39.673674"
     inkscape:cy="56.473638"
     inkscape:document-units="px"
     inkscape:current-layer="layer1"
     showgrid="false"
     inkscape:window-width="1920"
     inkscape:window-height="1028"
     inkscape:window-x="0"
     inkscape:window-y="0"
     inkscape:window-maximized="1"
     units="px" />
  <metadata
     id="metadata7">
    <rdf:RDF>
      <cc:Work
         rdf:about="">
        <dc:format>image/svg+xml</dc:format>
        <dc:type
           rdf:resource="http://purl.org/dc/dcmitype/StillImage" />
        <dc:title />
      </cc:Work>
    </rdf:RDF>
  </metadata>
  <g
     inkscape:label="Layer 1"
     inkscape:groupmode="layer"
     id="layer1"
     transform="translate(0,-872.36216)">
    <path
       id="path5667"
       style="fill:#47a3f5;fill-opacity:1;fill-rule:nonzero;stroke:#000000;stroke-width:0.51596254;stroke-opacity:1"
       d="m 112.83814,911.57976 c -0.84147,-0.29901 -1.69337,-0.96176 -2.49112,-1.93789 -1.87841,-2.29847 -2.45268,-5.15091 -1.48787,-7.39038 0.84015,-1.95011 2.87213,-3.47145 5.82881,-4.36413 0.66451,-0.20063 2.30064,-0.56557 2.98401,-0.6656 l 0.32489,-0.0477 -0.48707,3.51284 c -0.26786,1.93206 -0.49209,3.51832 -0.49828,3.52499 -0.006,0.006 -0.28437,-0.0637 -0.61822,-0.15662 -2.50852,-0.69725 -4.88727,-0.4196 -5.48249,0.6399 -0.15995,0.28475 -0.16585,0.79093 -0.013,1.1553 0.27176,0.6497 1.33878,1.58152 2.59506,2.2662 0.64843,0.35342 2.15369,1.0578 2.26044,1.0578 0.0828,0 0.0778,0.10884 -0.0231,0.51447 -0.23041,0.92627 -0.69978,1.61518 -1.28122,1.88053 -0.39695,0.18114 -1.1164,0.18563 -1.61048,0.0112 z m -5.86013,1.10675 c -1.29974,-3.19185 -3.51201,-8.62333 -4.91616,-12.06997 -1.40413,-3.44664 -2.540503,-6.28185 -2.525228,-6.30048 0.0152,-0.0185 0.890788,0.60242 1.945618,1.38011 l 1.91784,1.41393 3.95677,9.53603 c 2.17623,5.24483 3.96161,9.55433 3.96753,9.57659 0.006,0.0222 -0.4379,0.5415 -0.98624,1.15379 l -0.99697,1.11335 -2.36316,-5.80335 z m -1.27617,8.24557 c -1.13857,-2.18504 -4.46092,-9.97231 -10.364935,-24.29451 -1.779418,-4.31652 -3.221997,-7.86446 -3.205721,-7.88432 0.01623,-0.0198 1.161433,0.88467 2.544794,2.01 l 2.515233,2.04603 0.839247,1.99555 c 3.495232,8.31078 8.927842,21.4791 9.680752,23.46554 l 0.36079,0.95189 -0.28008,0.31731 c -0.20643,0.23384 -1.90035,1.55117 -1.99467,1.55117 -0.007,0 -0.05,-0.0714 -0.0954,-0.15871 z m -8.619123,-0.24209 c -1.193609,-1.89813 -4.45707,-11.72588 -5.771214,-11.90081 -3.19349,-0.14384 -6.198574,-1.14648 -9.105542,-1.20094 -0.120725,0.24537 -0.260653,0.47925 -0.399275,0.70509 -2.579013,3.81963 -4.685228,8.69675 -7.030559,12.19406 -1.66681,0.23622 -3.890707,0.37639 -6.157183,0.0321 -0.01913,-0.0233 0.528681,-1.356 1.217491,-2.96141 4.286069,-9.73992 8.771789,-20.34442 12.727844,-29.28917 2.237447,-0.0128 4.513764,-0.23716 6.74224,0.0254 1.926941,3.07105 3.155809,6.55652 4.542649,9.72427 3.05332,6.80272 5.87688,13.69823 8.607952,19.68782 0.22399,0.42311 1.34,3.11884 1.30755,3.15842 -0.0225,0.0271 -1.50478,0.0599 -3.29416,0.072 l -3.253388,0.022 -0.134345,-0.26913 z M 88.697578,892.8665 c -1.142217,0.41916 -3.91333,0.99493 -4.445648,1.66335 -0.647,3.37176 -1.269405,5.8027 -1.884637,8.89989 2.696926,0.97566 5.307329,2.1914 8.186008,2.90228 l 0.202319,-0.0128 c -0.732072,-4.4821 -1.508405,-9.53716 -2.058042,-13.45258 z"
       inkscape:connector-curvature="0" />
    <text
       xml:space="preserve"
       style="font-style:normal;font-weight:normal;font-size:40px;line-height:125%;font-family:sans-serif;letter-spacing:0px;word-spacing:0px;fill:#000000;fill-opacity:1;stroke:none;stroke-width:1px;stroke-linecap:butt;stroke-linejoin:miter;stroke-opacity:1"
       x="-97.22718"
       y="952.6601"
       id="text4331"
       sodipodi:linespacing="125%"><tspan
         sodipodi:role="line"
         id="tspan4333"
         x="-97.22718"
         y="952.6601" /></text>
    <flowRoot
       xml:space="preserve"
       id="flowRoot4343"
       style="fill:black;stroke:none;stroke-opacity:1;stroke-width:1px;stroke-linejoin:miter;stroke-linecap:butt;fill-opacity:1;font-family:sans-serif;font-style:normal;font-weight:normal;font-size:40px;line-height:125%;letter-spacing:0px;word-spacing:0px"><flowRegion
         id="flowRegion4345"><rect
           id="rect4347"
           width="89.095451"
           height="46.669048"
           x="-116.31907"
           y="-37.788887" /></flowRegion><flowPara
         id="flowPara4349" /></flowRoot>    <flowRoot
       xml:space="preserve"
       id="flowRoot4355"
       style="fill:black;stroke:none;stroke-opacity:1;stroke-width:1px;stroke-linejoin:miter;stroke-linecap:butt;fill-opacity:1;font-family:sans-serif;font-style:normal;font-weight:normal;font-size:40px;line-height:125%;letter-spacing:0px;word-spacing:0px"><flowRegion
         id="flowRegion4357"><rect
           id="rect4359"
           width="66.46804"
           height="63.63961"
           x="-103.23759"
           y="83.126373" /></flowRegion><flowPara
         id="flowPara4361" /></flowRoot>    <g
       transform="scale(0.82484076,1.2123552)"
       style="font-style:normal;font-variant:normal;font-weight:normal;font-stretch:normal;font-size:97.99638367px;line-height:100%;font-family:sans-serif;-inkscape-font-specification:'sans-serif, Normal';text-align:start;letter-spacing:0px;word-spacing:0px;writing-mode:lr-tb;text-anchor:start;fill:#47a3f5;fill-opacity:1;stroke:#000000;stroke-width:1px;stroke-linecap:butt;stroke-linejoin:miter;stroke-opacity:1"
       id="text4156">
      <path
         d="m 20.042997,824.84112 15.790433,0 0,-54.50092 -17.178078,3.44519 0,-8.80437 17.082378,-3.44518 9.665659,0 0,63.30528 15.790433,0 0,8.13447 -41.150825,0 0,-8.13447 z"
         style=""
         id="path4153" />
      <path
         d="m 115.35979,771.53645 0,26.65233 26.65234,0 0,8.13447 -26.65234,0 0,26.65234 -8.03877,0 0,-26.65234 -26.652332,0 0,-8.13447 26.652332,0 0,-26.65233 8.03877,0 z"
         style=""
         id="path4155" />
      <path
         d="m 164.54937,824.84112 15.79044,0 0,-54.50092 -17.17808,3.44519 0,-8.80437 17.08238,-3.44518 9.66566,0 0,63.30528 15.79043,0 0,8.13447 -41.15083,0 0,-8.13447 z"
         style=""
         id="path4157" />
    </g>
    <flowRoot
       xml:space="preserve"
       id="flowRoot4160"
       style="fill:black;stroke:none;stroke-opacity:1;stroke-width:1px;stroke-linejoin:miter;stroke-linecap:butt;fill-opacity:1;font-family:sans-serif;font-style:normal;font-weight:normal;font-size:40px;line-height:125%;letter-spacing:0px;word-spacing:0px"><flowRegion
         id="flowRegion4162"><rect
           id="rect4164"
           width="108"
           height="85"
           x="-90"
           y="113" /></flowRegion><flowPara
         id="flowPara4166" /></flowRoot>  </g>
</svg>
