<?xml version="1.0" encoding="UTF-8" standalone="no"?>
<!-- Created with Inkscape (http://www.inkscape.org/) -->

<svg
   xmlns:osb="http://www.openswatchbook.org/uri/2009/osb"
   xmlns:dc="http://purl.org/dc/elements/1.1/"
   xmlns:cc="http://creativecommons.org/ns#"
   xmlns:rdf="http://www.w3.org/1999/02/22-rdf-syntax-ns#"
   xmlns:svg="http://www.w3.org/2000/svg"
   xmlns="http://www.w3.org/2000/svg"
   xmlns:sodipodi="http://sodipodi.sourceforge.net/DTD/sodipodi-0.dtd"
   xmlns:inkscape="http://www.inkscape.org/namespaces/inkscape"
   width="180"
   height="180"
   viewBox="0 0 180 180"
   id="svg2"
   version="1.1"
   inkscape:version="0.91 r"
   sodipodi:docname="client5.svg">
  <defs
     id="defs4">
    <linearGradient
       id="linearGradient5639"
       osb:paint="solid">
      <stop
         style="stop-color:#47a3f5;stop-opacity:1;"
         offset="0"
         id="stop5641" />
    </linearGradient>
  </defs>
  <sodipodi:namedview
     id="base"
     pagecolor="#ffffff"
     bordercolor="#666666"
     borderopacity="1.0"
     inkscape:pageopacity="0.0"
     inkscape:pageshadow="2"
     inkscape:zoom="1.4142136"
     inkscape:cx="-139.9279"
     inkscape:cy="154.07711"
     inkscape:document-units="px"
     inkscape:current-layer="layer1"
     showgrid="false"
     inkscape:window-width="1920"
     inkscape:window-height="1028"
     inkscape:window-x="0"
     inkscape:window-y="0"
     inkscape:window-maximized="1"
     units="px" />
  <metadata
     id="metadata7">
    <rdf:RDF>
      <cc:Work
         rdf:about="">
        <dc:format>image/svg+xml</dc:format>
        <dc:type
           rdf:resource="http://purl.org/dc/dcmitype/StillImage" />
        <dc:title />
      </cc:Work>
    </rdf:RDF>
  </metadata>
  <g
     inkscape:label="Layer 1"
     inkscape:groupmode="layer"
     id="layer1"
     transform="translate(0,-872.36216)">
    <text
       xml:space="preserve"
       style="font-style:normal;font-weight:normal;font-size:40px;line-height:125%;font-family:sans-serif;letter-spacing:0px;word-spacing:0px;fill:#000000;fill-opacity:1;stroke:none;stroke-width:1px;stroke-linecap:butt;stroke-linejoin:miter;stroke-opacity:1"
       x="-97.22718"
       y="952.6601"
       id="text4331"
       sodipodi:linespacing="125%"><tspan
         sodipodi:role="line"
         id="tspan4333"
         x="-97.22718"
         y="952.6601" /></text>
    <flowRoot
       xml:space="preserve"
       id="flowRoot4343"
       style="fill:black;stroke:none;stroke-opacity:1;stroke-width:1px;stroke-linejoin:miter;stroke-linecap:butt;fill-opacity:1;font-family:sans-serif;font-style:normal;font-weight:normal;font-size:40px;line-height:125%;letter-spacing:0px;word-spacing:0px"><flowRegion
         id="flowRegion4345"><rect
           id="rect4347"
           width="89.095451"
           height="46.669048"
           x="-116.31907"
           y="-37.788887" /></flowRegion><flowPara
         id="flowPara4349" /></flowRoot>    <flowRoot
       xml:space="preserve"
       id="flowRoot4355"
       style="fill:black;stroke:none;stroke-opacity:1;stroke-width:1px;stroke-linejoin:miter;stroke-linecap:butt;fill-opacity:1;font-family:sans-serif;font-style:normal;font-weight:normal;font-size:40px;line-height:125%;letter-spacing:0px;word-spacing:0px"><flowRegion
         id="flowRegion4357"><rect
           id="rect4359"
           width="66.46804"
           height="63.63961"
           x="-103.23759"
           y="83.126373" /></flowRegion><flowPara
         id="flowPara4361" /></flowRoot>    <path
       style="fill:#47a3f5;fill-opacity:1;fill-rule:evenodd;stroke:#000000;stroke-width:1px;stroke-linecap:butt;stroke-linejoin:miter;stroke-opacity:1"
       d="m 27.343874,903.72141 130.550666,-0.41445 c 7.98379,0.2121 10.50777,2.30309 10.95395,9.10081 l -0.4169,93.80253 c 0.18791,6.6454 -2.39531,9.6556 -10.6675,9.5618 l -135.457295,0 c -7.273792,0.067 -10.652543,-2.5288 -10.917708,-9.1873 l 0,-89.71417 c 0.07426,-11.2404 4.756068,-13.21595 15.954787,-13.14922 z"
       id="path4165"
       inkscape:connector-curvature="0"
       sodipodi:nodetypes="ccccccccc" />
    <path
       style="fill:#ffffff;fill-opacity:1;fill-rule:evenodd;stroke:#000000;stroke-width:0.87042677px;stroke-linecap:butt;stroke-linejoin:miter;stroke-opacity:1"
       d="m 33.890595,912.32407 116.977835,-0.35043 c 7.15376,0.17934 9.41532,1.94738 9.81511,7.6952 l -0.37355,79.31481 c 0.16837,5.61915 -2.14629,8.16435 -9.55845,8.08505 l -121.374338,0 c -6.517566,0.057 -9.545041,-2.1382 -9.782638,-7.76835 l 0,-75.85793 c 0.06654,-9.50433 4.261599,-11.17477 14.296031,-11.11835 z"
       id="path4165-6"
       inkscape:connector-curvature="0"
       sodipodi:nodetypes="ccccccccc" />
    <path
       id="path5667"
       style="fill:#47a3f5;fill-opacity:1;fill-rule:nonzero;stroke:#000000;stroke-width:1.04613495;stroke-opacity:1"
       d="m 126.96096,971.93607 c -1.64947,-0.62707 -3.31946,-2.0169 -4.88326,-4.06396 -3.68222,-4.82016 -4.80793,-10.80205 -2.91665,-15.49842 1.64695,-4.08961 5.63018,-7.28007 11.42611,-9.1521 1.30261,-0.42072 4.50989,-1.18605 5.84951,-1.39582 l 0.63684,-0.0997 -0.95476,7.36683 c -0.52511,4.05175 -0.96467,7.3783 -0.9768,7.39229 -0.0121,0.0142 -0.55746,-0.1337 -1.21187,-0.32831 -4.91739,-1.46221 -9.58043,-0.87997 -10.74719,1.34192 -0.31359,0.59716 -0.32514,1.65867 -0.0264,2.42282 0.53271,1.36251 2.62437,3.31662 5.08703,4.75247 1.27112,0.74114 4.22183,2.21831 4.4311,2.21831 0.16222,0 0.15269,0.22826 -0.0452,1.07893 -0.45165,1.94248 -1.37174,3.38716 -2.51152,3.94363 -0.77814,0.37989 -2.18847,0.38932 -3.15702,0.0213 z m -11.48746,2.32101 c -2.54784,-6.69369 -6.88451,-18.08409 -9.63703,-25.31207 -2.75251,-7.228 -4.98009,-13.17375 -4.95017,-13.21279 0.0299,-0.0389 1.7462,1.26334 3.81394,2.8942 l 3.75953,2.96519 7.75637,19.99812 c 4.26601,10.99895 7.76585,20.03646 7.77745,20.08317 0.0117,0.0464 -0.85839,1.13557 -1.9333,2.41963 l -1.95433,2.33477 -4.63246,-12.17022 z m -2.50165,17.29185 c -2.23193,-4.58226 -8.74465,-20.91305 -20.318183,-50.94824 -3.48814,-9.05225 -6.316,-16.49269 -6.2841,-16.53431 0.0319,-0.0416 2.27672,1.85525 4.98852,4.21518 l 4.93053,4.29077 1.64517,4.18488 c 6.851663,17.42862 17.501083,45.04405 18.977003,49.20984 l 0.70721,1.99621 -0.54899,0.66542 c -0.40467,0.49037 -3.72522,3.25296 -3.91009,3.25296 -0.0138,0 -0.0979,-0.14972 -0.18707,-0.33271 z m -16.895893,-0.50767 c -2.33979,-3.98059 -8.73711,-24.5905 -11.3132,-24.95734 -6.26012,-0.30161 -12.15093,-2.40431 -17.84938,-2.51849 -0.23665,0.51459 -0.51096,1.00503 -0.7827,1.47866 -5.05558,8.01016 -9.18435,18.23803 -13.78186,25.57226 -3.2674,0.49538 -7.62686,0.78931 -12.0698,0.0671 -0.0376,-0.0489 1.03635,-2.84366 2.38664,-6.21037 8.40189,-20.42567 17.19515,-42.66448 24.9501,-61.42265 4.38603,-0.0255 8.84827,-0.49733 13.2167,0.0531 3.77734,6.44032 6.18624,13.74974 8.90482,20.39288 5.98537,14.26606 11.520343,28.72667 16.874013,41.28751 0.43909,0.88733 2.62676,6.54052 2.56317,6.62355 -0.044,0.0572 -2.94982,0.12545 -6.45748,0.15119 l -6.377543,0.0463 -0.26348,-0.56438 z m -16.43722,-58.34895 c -2.23906,0.879 -7.67122,2.08649 -8.7147,3.4882 -1.2683,7.07098 -2.48841,12.16891 -3.69441,18.66409 5.28672,2.04605 10.40386,4.59559 16.04685,6.08637 l 0.39662,-0.027 c -1.43508,-9.39947 -2.95692,-20.00045 -4.03436,-28.21155 z"
       inkscape:connector-curvature="0" />
    <ellipse
       style="opacity:1;fill:#ffffff;fill-opacity:1;fill-rule:nonzero;stroke:#000000;stroke-width:1.1032455;stroke-linejoin:miter;stroke-miterlimit:4;stroke-dasharray:none;stroke-opacity:1"
       id="path4225"
       cx="90.538887"
       cy="907.53522"
       rx="1.2286637"
       ry="1.4054404" />
    <path
       style="fill:#47a3f5;fill-opacity:1;fill-rule:evenodd;stroke:#000000;stroke-width:0.53121734px;stroke-linecap:butt;stroke-linejoin:miter;stroke-opacity:1"
       d="m 95.556563,1025.0141 -0.431359,-77.86897 c 0.08595,-4.76259 1.070641,-6.27283 4.285796,-6.55441 l 44.37819,0.0356 c 3.14357,-0.12719 4.57233,1.40679 4.54286,6.34114 l 0.24414,80.79654 c 0.0449,4.3385 -1.17717,6.3597 -4.32678,6.533 l -42.44327,0.2039 c -5.317904,-0.019 -6.260963,-2.8069 -6.249577,-9.4868 z"
       id="path4165-5"
       inkscape:connector-curvature="0"
       sodipodi:nodetypes="ccccccccc" />
    <path
       style="fill:#ffffff;fill-opacity:1;fill-rule:evenodd;stroke:#000000;stroke-width:0.46238574px;stroke-linecap:butt;stroke-linejoin:miter;stroke-opacity:1"
       d="m 99.61463,1021.0896 -0.37661,-69.77328 c 0.072,-4.26743 0.90433,-5.6204 3.62287,-5.87193 l 37.52408,0.0426 c 2.65803,-0.11319 3.86635,1.26165 3.84219,5.68298 l 0.21875,72.39643 c 0.0386,3.8875 -0.99439,5.6982 -3.65753,5.8528 l -35.88795,0.1723 c -4.49657,-0.018 -5.2944,-2.5165 -5.2858,-8.5019 z"
       id="path4165-6-2"
       inkscape:connector-curvature="0"
       sodipodi:nodetypes="ccccccccc" />
    <path
       id="path5667-3"
       style="fill:#47a3f5;fill-opacity:1;fill-rule:nonzero;stroke:#000000;stroke-width:0.35623306;stroke-opacity:1"
       d="m 135.6035,992.15819 c -0.5716,-0.20983 -1.15031,-0.67488 -1.69223,-1.35986 -1.27602,-1.61289 -1.66612,-3.61451 -1.01072,-5.18598 0.57072,-1.36844 1.95106,-2.43601 3.95957,-3.06242 0.4514,-0.14077 1.56284,-0.39686 2.02707,-0.46705 l 0.22069,-0.0334 -0.33086,2.46504 c -0.18197,1.35576 -0.33429,2.46888 -0.3385,2.47355 -0.004,0.004 -0.19318,-0.0447 -0.41996,-0.10985 -1.70405,-0.48928 -3.31997,-0.29445 -3.72429,0.44903 -0.10867,0.19981 -0.11268,0.555 -0.009,0.8107 0.1846,0.45591 0.90943,1.10978 1.76284,1.59024 0.44049,0.248 1.46302,0.74227 1.53554,0.74227 0.0562,0 0.0529,0.0764 -0.0157,0.36103 -0.15651,0.64998 -0.47536,1.13339 -0.87033,1.31959 -0.26965,0.12712 -0.75839,0.13028 -1.09403,0.007 z m -3.98083,0.77664 c -0.88292,-2.2398 -2.38573,-6.05118 -3.33958,-8.46976 -0.95385,-2.41859 -1.72579,-4.40812 -1.71542,-4.42118 0.0104,-0.013 0.60513,0.42273 1.32167,0.96844 l 1.30282,0.99219 2.68787,6.69164 c 1.47833,3.6804 2.69115,6.70448 2.69517,6.72008 0.004,0.015 -0.29746,0.38 -0.66995,0.8097 l -0.67725,0.7812 -1.60533,-4.07231 z m -0.86691,5.78616 c -0.77344,-1.53335 -3.03035,-6.99787 -7.041,-17.04804 -1.20877,-3.02901 -2.18873,-5.51868 -2.17767,-5.5326 0.0111,-0.0139 0.78897,0.62078 1.7287,1.41045 l 1.70862,1.43575 0.57011,1.40031 c 2.37435,5.83185 6.06477,15.07238 6.57623,16.46628 l 0.24507,0.668 -0.19024,0.2226 c -0.14023,0.1641 -1.29093,1.08855 -1.35499,1.08855 -0.005,0 -0.0339,-0.05 -0.0648,-0.1113 z m -5.85505,-0.16995 c -0.81082,-1.332 -3.02773,-8.22831 -3.92045,-8.35106 -2.16935,-0.10093 -4.21074,-0.80451 -6.18546,-0.84272 -0.082,0.17219 -0.17707,0.33629 -0.27124,0.49478 -1.75194,2.68031 -3.18271,6.1027 -4.77592,8.5568 -1.13228,0.1658 -2.64299,0.26415 -4.18263,0.022 -0.0131,-0.016 0.35913,-0.9515 0.82706,-2.0781 2.91156,-6.83467 5.95875,-14.27607 8.64613,-20.55281 1.51992,-0.009 3.06625,-0.16642 4.58007,0.0178 1.30899,2.15502 2.14377,4.60084 3.08586,6.82373 2.07415,4.77362 3.99222,9.61234 5.84746,13.81538 0.15216,0.2969 0.91027,2.18855 0.88824,2.21635 -0.0153,0.019 -1.02223,0.042 -2.23776,0.051 l -2.21006,0.015 -0.0913,-0.18885 z m -5.69611,-19.52435 c -0.77591,0.29413 -2.65835,0.69817 -3.01996,1.1672 -0.43951,2.36605 -0.86232,4.07188 -1.28025,6.24526 1.83204,0.68464 3.60532,1.53775 5.56083,2.03658 l 0.13744,-0.009 c -0.49731,-3.14519 -1.02468,-6.69242 -1.39806,-9.43997 z"
       inkscape:connector-curvature="0" />
    <ellipse
       style="opacity:1;fill:#ffffff;fill-opacity:1;fill-rule:nonzero;stroke:#000000;stroke-width:0.87959307;stroke-linejoin:miter;stroke-miterlimit:4;stroke-dasharray:none;stroke-opacity:1"
       id="path4225-1"
       cx="121.46747"
       cy="942.87891"
       rx="1.0421792"
       ry="1.0532278" />
  </g>
</svg>
