<?xml version="1.0"?>
<svg version="1.1" xmlns="http://www.w3.org/2000/svg" xmlns:xlink="http://www.w3.org/1999/xlink" width="180" height="180">
    <desc iVinci="yes" version="4.6" gridStep="20" showGrid="no" snapToGrid="no" codePlatform="0"/>
    <g id="Layer1" name="Layer 1" opacity="1">
        <g id="Shape1">
            <desc shapeID="1" type="0" basicInfo-basicType="0" basicInfo-roundedRectRadius="12" basicInfo-polygonSides="6" basicInfo-starPoints="5" bounding="rect(-44.5477,-23.3345,89.0955,46.6691)" text="" font-familyName="" font-pixelSize="20" font-bold="0" font-underline="0" font-alignment="1" strokeStyle="0" markerStart="0" markerEnd="0" shadowEnabled="0" shadowOffsetX="0" shadowOffsetY="2" shadowBlur="4" shadowOpacity="160" blurEnabled="0" blurRadius="4" transform="matrix(1,0,0,1,-71.7713,-886.817)" pers-center="0,0" pers-size="0,0" pers-start="0,0" pers-end="0,0" locked="0" mesh="" flag=""/>
            <path id="shapePath1" d="M-116.319,-910.151 L-27.2236,-910.151 L-27.2236,-863.482 L-116.319,-863.482 L-116.319,-910.151 Z" style="stroke:none;fill-rule:evenodd;fill:#000000;fill-opacity:1;"/>
        </g>
        <g id="Shape2">
            <desc shapeID="2" type="0" basicInfo-basicType="0" basicInfo-roundedRectRadius="12" basicInfo-polygonSides="6" basicInfo-starPoints="5" bounding="rect(-33.234,-31.8198,66.468,63.6396)" text="" font-familyName="" font-pixelSize="20" font-bold="0" font-underline="0" font-alignment="1" strokeStyle="0" markerStart="0" markerEnd="0" shadowEnabled="0" shadowOffsetX="0" shadowOffsetY="2" shadowBlur="4" shadowOpacity="160" blurEnabled="0" blurRadius="4" transform="matrix(1,0,0,1,-70.0036,-757.416)" pers-center="0,0" pers-size="0,0" pers-start="0,0" pers-end="0,0" locked="0" mesh="" flag=""/>
            <path id="shapePath2" d="M-103.238,-789.236 L-36.7696,-789.236 L-36.7696,-725.596 L-103.238,-725.596 L-103.238,-789.236 Z" style="stroke:none;fill-rule:evenodd;fill:#000000;fill-opacity:1;"/>
        </g>
        <g id="Shape3">
            <desc shapeID="3" type="0" basicInfo-basicType="0" basicInfo-roundedRectRadius="12" basicInfo-polygonSides="6" basicInfo-starPoints="5" bounding="rect(-83.439,-65.3466,166.878,130.693)" text="" font-familyName="" font-pixelSize="20" font-bold="0" font-underline="0" font-alignment="1" strokeStyle="0" markerStart="0" markerEnd="0" shadowEnabled="0" shadowOffsetX="0" shadowOffsetY="2" shadowBlur="4" shadowOpacity="160" blurEnabled="0" blurRadius="4" transform="matrix(1,0,0,1,86.6206,111.587)" pers-center="0,0" pers-size="0,0" pers-start="0,0" pers-end="0,0" locked="0" mesh="" flag=""/>
            <path id="shapePath3" d="M25.134,46.2408 L170.06,78.5917 L148.107,176.934 L3.18163,144.583 L25.134,46.2408 Z" style="stroke:#000000;stroke-opacity:1;stroke-width:0.5;stroke-linejoin:round;stroke-miterlimit:2;stroke-linecap:round;fill-rule:evenodd;fill:#47a3f5;fill-opacity:1;"/>
        </g>
        <g id="Shape4">
            <desc shapeID="4" type="0" basicInfo-basicType="0" basicInfo-roundedRectRadius="12" basicInfo-polygonSides="6" basicInfo-starPoints="5" bounding="rect(-61.4741,-65.3632,122.948,130.726)" text="" font-familyName="" font-pixelSize="20" font-bold="0" font-underline="0" font-alignment="1" strokeStyle="0" markerStart="0" markerEnd="0" shadowEnabled="0" shadowOffsetX="0" shadowOffsetY="2" shadowBlur="4" shadowOpacity="160" blurEnabled="0" blurRadius="4" transform="matrix(1,0,0,1,86.5322,111.499)" pers-center="0,0" pers-size="0,0" pers-start="0,0" pers-end="0,0" locked="0" mesh="" flag=""/>
            <path id="shapePath4" d="M25.0581,46.1358 L148.006,176.862 L25.0581,46.1358 Z" style="stroke:#000000;stroke-opacity:1;stroke-width:0.5;stroke-linejoin:;stroke-miterlimit:2;stroke-linecap:butt;fill:none;"/>
        </g>
        <g id="Shape5">
            <desc shapeID="5" type="0" basicInfo-basicType="0" basicInfo-roundedRectRadius="12" basicInfo-polygonSides="6" basicInfo-starPoints="5" bounding="rect(-83.3828,-32.957,166.766,65.914)" text="" font-familyName="" font-pixelSize="20" font-bold="0" font-underline="0" font-alignment="1" strokeStyle="0" markerStart="0" markerEnd="0" shadowEnabled="0" shadowOffsetX="0" shadowOffsetY="2" shadowBlur="4" shadowOpacity="160" blurEnabled="0" blurRadius="4" transform="matrix(1,0,0,1,86.6172,111.59)" pers-center="0,0" pers-size="0,0" pers-start="0,0" pers-end="0,0" locked="0" mesh="" flag=""/>
            <path id="shapePath5" d="M3.23438,144.547 L170,78.6328 L3.23438,144.547 Z" style="stroke:#000000;stroke-opacity:1;stroke-width:0.5;stroke-linejoin:;stroke-miterlimit:2;stroke-linecap:butt;fill:none;"/>
        </g>
        <g id="Shape6">
            <desc shapeID="6" type="0" basicInfo-basicType="0" basicInfo-roundedRectRadius="12" basicInfo-polygonSides="6" basicInfo-starPoints="5" bounding="rect(-72.2423,-32.576,144.485,65.1521)" text="" font-familyName="" font-pixelSize="20" font-bold="0" font-underline="0" font-alignment="1" strokeStyle="0" markerStart="0" markerEnd="0" shadowEnabled="0" shadowOffsetX="0" shadowOffsetY="2" shadowBlur="4" shadowOpacity="160" blurEnabled="0" blurRadius="4" transform="matrix(1,0,0,1,97.66,46.089)" pers-center="0,0" pers-size="0,0" pers-start="0,0" pers-end="0,0" locked="0" mesh="" flag=""/>
            <path id="shapePath6" d="M25.7532,46.4123 L169.463,78.665 L169.902,78.3816 L108.508,13.5129 L25.4177,46.0764 L25.7532,46.4123 Z" style="stroke:#000000;stroke-opacity:1;stroke-width:0.497519;stroke-linejoin:;stroke-miterlimit:2;stroke-linecap:butt;fill-rule:evenodd;fill:#47a3f5;fill-opacity:1;"/>
        </g>
        <g id="Shape7">
            <desc shapeID="7" type="0" basicInfo-basicType="0" basicInfo-roundedRectRadius="12" basicInfo-polygonSides="6" basicInfo-starPoints="5" bounding="rect(-61.9614,-53.9007,123.923,107.801)" text="" font-familyName="" font-pixelSize="20" font-bold="0" font-underline="0" font-alignment="1" strokeStyle="0" markerStart="0" markerEnd="0" shadowEnabled="0" shadowOffsetX="0" shadowOffsetY="2" shadowBlur="4" shadowOpacity="160" blurEnabled="0" blurRadius="4" transform="matrix(1,0,0,1,101.612,57.6875)" pers-center="0,0" pers-size="0,0" pers-start="0,0" pers-end="0,0" locked="0" mesh="" flag=""/>
            <path id="shapePath7" d="M50.4477,3.78678 L39.6508,61.5828 C70.6139,94.3552 69.151,92.9987 86.6421,111.588 C142.694,89.3435 99.5305,106.482 153.42,85.1135 L163.574,30.0934 L50.4477,3.78678 Z" style="stroke:#000000;stroke-opacity:1;stroke-width:0.5;stroke-linejoin:;stroke-miterlimit:2;stroke-linecap:butt;fill-rule:evenodd;fill:#ffffff;fill-opacity:1;"/>
        </g>
        <g id="Shape8">
            <desc shapeID="8" type="0" basicInfo-basicType="0" basicInfo-roundedRectRadius="12" basicInfo-polygonSides="6" basicInfo-starPoints="5" bounding="rect(-44.8534,-34.6144,89.7068,69.2288)" text="" font-familyName="" font-pixelSize="20" font-bold="0" font-underline="0" font-alignment="1" strokeStyle="0" markerStart="0" markerEnd="0" shadowEnabled="0" shadowOffsetX="0" shadowOffsetY="2" shadowBlur="4" shadowOpacity="160" blurEnabled="0" blurRadius="4" transform="matrix(1,0,0,1,98.3428,61.0796)" pers-center="0,0" pers-size="0,0" pers-start="0,0" pers-end="0,0" locked="0" mesh="" flag=""/>
            <path id="shapePath8" d="M124.568,86.683 C123.579,85.547 122.855,83.842 122.453,81.6976 C121.505,76.6482 122.878,71.7918 126.01,69.1153 C128.737,66.7846 132.863,66.0711 137.843,67.0685 C138.963,67.2926 141.619,68.0434 142.688,68.4377 L143.196,68.6252 L139.772,73.6474 C137.889,76.4096 136.337,78.674 136.323,78.6793 C136.309,78.6853 135.96,78.3528 135.547,77.9419 C132.446,74.8542 128.78,73.3729 127.097,74.5278 C126.644,74.8382 126.244,75.6135 126.183,76.2973 C126.075,77.5165 126.903,79.8088 128.196,81.8721 C128.864,82.9371 130.503,85.2306 130.658,85.3163 C130.778,85.3828 130.687,85.5465 130.227,86.0906 C129.176,87.3329 127.962,88.0178 126.913,87.96 C126.197,87.9206 125.149,87.3501 124.568,86.6832 L124.568,86.683 M115.209,83.6853 C115.792,77.7237 116.783,67.5786 117.411,61.1406 C118.04,54.7026 118.584,49.4217 118.62,49.4053 C118.657,49.3889 119.447,51.0485 120.376,53.0934 L122.065,56.8114 L120.431,74.6815 C119.532,84.51 118.789,92.5836 118.781,92.6227 C118.772,92.6615 117.726,93.1057 116.457,93.6091 L114.149,94.5246 L115.209,83.6853 M106.979,95.3671 C107.017,91.0862 108.22,76.4201 110.731,49.612 C111.487,41.5323 112.138,34.9074 112.177,34.8899 C112.216,34.8724 113.178,37.1852 114.315,40.0295 L116.382,45.201 L116.057,48.9496 C114.7,64.5612 112.398,89.2129 111.954,92.8782 L111.741,94.6345 L111.089,94.8987 C110.609,95.0934 107.132,95.7638 106.995,95.6881 C106.985,95.6821 106.978,95.538 106.979,95.3671 L106.979,95.3671 M94.6599,88.0766 C94.3961,84.1937 97.2621,66.4305 95.4905,65.1062 C90.9679,62.3216 87.3829,58.3647 83.2068,55.9478 C82.8419,56.229 82.4579,56.4771 82.0821,56.7139 C75.3854,60.5298 68.5569,66.3548 62.4486,69.8617 C59.8473,68.8879 56.5119,67.3191 53.4895,64.9694 C53.4798,64.9181 55.3054,63.3042 57.5467,61.3831 C71.2996,49.8144 86.0109,37.0736 98.6699,26.4652 C101.926,28.2422 105.403,29.7224 108.434,31.9153 C108.854,38.1942 107.942,44.5513 107.504,50.5457 C106.673,63.4788 105.436,76.3705 104.766,87.792 C104.764,88.6238 104.298,93.6734 104.221,93.7084 C104.167,93.7324 101.991,92.5928 99.3849,91.1757 L94.647,88.5986 L94.6601,88.0761 L94.6599,88.0766 M104.013,38.4724 C102.032,38.2016 97.5654,36.8648 96.276,37.4676 C92.7292,42.144 89.9458,45.3904 86.6574,49.6693 C89.8162,53.3372 92.6637,57.3056 96.2909,60.7114 L96.5945,60.8539 C98.999,53.3597 101.782,44.9471 104.013,38.4725 L104.013,38.4724 Z" style="stroke:#000000;stroke-opacity:1;stroke-width:0.872077;stroke-linejoin:miter;stroke-miterlimit:2;stroke-linecap:butt;fill-rule:nonzero;fill:#47a3f5;fill-opacity:1;"/>
        </g>
        <g id="Shape9">
            <desc shapeID="9" type="0" basicInfo-basicType="0" basicInfo-roundedRectRadius="12" basicInfo-polygonSides="6" basicInfo-starPoints="5" bounding="rect(-26.7261,-46.9551,53.4522,93.9102)" text="" font-familyName="" font-pixelSize="20" font-bold="0" font-underline="0" font-alignment="1" strokeStyle="0" markerStart="0" markerEnd="0" shadowEnabled="0" shadowOffsetX="0" shadowOffsetY="2" shadowBlur="4" shadowOpacity="160" blurEnabled="0" blurRadius="4" transform="matrix(1,0,0,1,36.0967,120.932)" pers-center="0,0" pers-size="0,0" pers-start="0,0" pers-end="0,0" locked="0" mesh="" flag=""/>
            <path id="shapePath9" d="M9.802,158.4 L9.37064,80.5309 C9.45659,75.7683 10.4413,74.2581 13.6564,73.9765 L58.0346,74.0121 C61.1782,73.8849 62.607,75.4189 62.5775,80.3533 L62.8216,161.15 C62.8665,165.488 61.6445,167.51 58.4948,167.683 L16.0516,167.887 C10.7337,167.868 9.79061,165.08 9.802,158.4 Z" style="stroke:#000000;stroke-opacity:1;stroke-width:0.531217;stroke-linejoin:;stroke-miterlimit:2;stroke-linecap:butt;fill-rule:evenodd;fill:#47a3f5;fill-opacity:1;"/>
        </g>
        <g id="Shape10">
            <desc shapeID="10" type="0" basicInfo-basicType="0" basicInfo-roundedRectRadius="12" basicInfo-polygonSides="6" basicInfo-starPoints="5" bounding="rect(-22.6045,-42.0736,45.2089,84.1471)" text="" font-familyName="" font-pixelSize="20" font-bold="0" font-underline="0" font-alignment="1" strokeStyle="0" markerStart="0" markerEnd="0" shadowEnabled="0" shadowOffsetX="0" shadowOffsetY="2" shadowBlur="4" shadowOpacity="160" blurEnabled="0" blurRadius="4" transform="matrix(1,0,0,1,36.0879,120.932)" pers-center="0,0" pers-size="0,0" pers-start="0,0" pers-end="0,0" locked="0" mesh="" flag=""/>
            <path id="shapePath10" d="M13.8601,154.503 L13.4834,84.73 C13.5554,80.4626 14.3878,79.1096 17.1063,78.8581 L54.6304,78.9007 C57.2884,78.7875 58.4967,80.1623 58.4726,84.5836 L58.6913,156.98 C58.7299,160.868 57.6969,162.678 55.0338,162.833 L19.1459,163.005 C14.6493,162.987 13.8515,160.489 13.8601,154.503 Z" style="stroke:#000000;stroke-opacity:1;stroke-width:0.462386;stroke-linejoin:;stroke-miterlimit:2;stroke-linecap:butt;fill-rule:evenodd;fill:#ffffff;fill-opacity:1;"/>
        </g>
        <g id="Shape11">
            <desc shapeID="11" type="0" basicInfo-basicType="0" basicInfo-roundedRectRadius="12" basicInfo-polygonSides="6" basicInfo-starPoints="5" bounding="rect(-16.7716,-11.5518,33.5432,23.1036)" text="" font-familyName="" font-pixelSize="20" font-bold="0" font-underline="0" font-alignment="1" strokeStyle="0" markerStart="0" markerEnd="0" shadowEnabled="0" shadowOffsetX="0" shadowOffsetY="2" shadowBlur="4" shadowOpacity="160" blurEnabled="0" blurRadius="4" transform="matrix(1,0,0,1,36.5817,120.666)" pers-center="0,0" pers-size="0,0" pers-start="0,0" pers-end="0,0" locked="0" mesh="" flag=""/>
            <path id="shapePath11" d="M49.8489,125.544 C49.2773,125.334 48.6986,124.869 48.1567,124.184 C46.8807,122.571 46.4906,120.57 47.146,118.998 C47.7167,117.63 49.097,116.562 51.1056,115.936 C51.557,115.795 52.6684,115.539 53.1326,115.469 L53.3533,115.435 L53.0225,117.9 C52.8405,119.256 52.6882,120.369 52.684,120.374 C52.68,120.378 52.4908,120.329 52.264,120.264 C50.5599,119.775 48.944,119.97 48.5397,120.713 C48.431,120.913 48.427,121.268 48.5307,121.524 C48.7153,121.98 49.4401,122.634 50.2935,123.114 C50.734,123.362 51.7566,123.856 51.8291,123.856 C51.8853,123.856 51.882,123.933 51.8134,124.217 C51.6569,124.867 51.338,125.351 50.943,125.537 C50.6734,125.664 50.1847,125.667 49.849,125.544 L49.8489,125.544 M45.8681,126.321 C44.9852,124.081 43.4824,120.269 42.5285,117.851 C41.5747,115.432 40.8027,113.443 40.8131,113.43 C40.8235,113.417 41.4182,113.852 42.1348,114.398 L43.4376,115.39 L46.1255,122.082 C47.6038,125.762 48.8166,128.786 48.8206,128.802 C48.8246,128.817 48.5232,129.182 48.1507,129.612 L47.4734,130.393 L45.8681,126.321 M45.0012,132.107 C44.2277,130.573 41.9708,125.109 37.9602,115.059 C36.7514,112.03 35.7715,109.54 35.7825,109.526 C35.7936,109.512 36.5715,110.147 37.5112,110.937 L39.2198,112.372 L39.7899,113.773 C42.1643,119.605 45.8547,128.845 46.3662,130.239 L46.6112,130.907 L46.421,131.13 C46.2808,131.294 45.1301,132.218 45.066,132.218 C45.061,132.218 45.0321,132.168 45.0012,132.107 L45.0012,132.107 M39.1461,131.937 C38.3353,130.605 36.1184,123.709 35.2257,123.586 C33.0563,123.485 31.015,122.781 29.0402,122.743 C28.9582,122.915 28.8632,123.079 28.769,123.238 C27.0171,125.918 25.5863,129.341 23.9931,131.795 C22.8608,131.96 21.3501,132.059 19.8104,131.817 C19.7973,131.801 20.1696,130.865 20.6375,129.739 C23.5491,122.904 26.5963,115.462 29.2836,109.186 C30.8036,109.177 32.3499,109.019 33.8637,109.204 C35.1727,111.359 36.0075,113.804 36.9496,116.027 C39.0237,120.801 40.9418,125.64 42.797,129.843 C42.9492,130.14 43.7073,132.031 43.6853,132.059 C43.67,132.078 42.663,132.101 41.4475,132.11 L39.2374,132.125 L39.1461,131.936 L39.1461,131.937 M33.45,112.412 C32.6741,112.707 30.7917,113.111 30.4301,113.58 C29.9906,115.946 29.5677,117.652 29.1498,119.825 C30.9819,120.51 32.7551,121.363 34.7106,121.862 L34.8481,121.853 C34.3508,118.707 33.8234,115.16 33.45,112.413 L33.45,112.412 Z" style="stroke:#000000;stroke-opacity:1;stroke-width:0.356233;stroke-linejoin:miter;stroke-miterlimit:2;stroke-linecap:butt;fill-rule:nonzero;fill:#47a3f5;fill-opacity:1;"/>
        </g>
        <g id="Shape12">
            <desc shapeID="12" type="0" basicInfo-basicType="0" basicInfo-roundedRectRadius="12" basicInfo-polygonSides="6" basicInfo-starPoints="5" bounding="rect(-1.04218,-1.05323,2.08436,2.10645)" text="" font-familyName="" font-pixelSize="20" font-bold="0" font-underline="0" font-alignment="1" strokeStyle="0" markerStart="0" markerEnd="0" shadowEnabled="0" shadowOffsetX="0" shadowOffsetY="2" shadowBlur="4" shadowOpacity="160" blurEnabled="0" blurRadius="4" transform="matrix(1,0,0,1,35.7129,76.2647)" pers-center="0,0" pers-size="0,0" pers-start="0,0" pers-end="0,0" locked="0" mesh="" flag=""/>
            <path id="shapePath12" d="M36.7551,76.2647 C36.7551,76.8464 36.2885,77.3179 35.7129,77.3179 C35.1373,77.3179 34.6707,76.8464 34.6707,76.2647 C34.6707,75.683 35.1373,75.2115 35.7129,75.2115 C36.2885,75.2115 36.7551,75.683 36.7551,76.2647 Z" style="stroke:#000000;stroke-opacity:1;stroke-width:0.879593;stroke-linejoin:;stroke-miterlimit:2;stroke-linecap:butt;fill-rule:evenodd;fill:#ffffff;fill-opacity:1;"/>
        </g>
        <g id="Shape13">
            <desc shapeID="13" type="0" basicInfo-basicType="0" basicInfo-roundedRectRadius="12" basicInfo-polygonSides="6" basicInfo-starPoints="5" bounding="rect(-25.253,-19.8409,50.5059,39.6819)" text="" font-familyName="Helvetica" font-pixelSize="20" font-bold="0" font-underline="0" font-alignment="1" strokeStyle="0" markerStart="0" markerEnd="0" shadowEnabled="0" shadowOffsetX="0" shadowOffsetY="2" shadowBlur="4" shadowOpacity="160" blurEnabled="0" blurRadius="4" transform="matrix(1.4982,0,0,1.35153,132.166,143.203)" pers-center="0,0" pers-size="0,0" pers-start="0,0" pers-end="0,0" locked="0" mesh="" flag=""/>
            <path id="shapePath13" d="M94.3322,137.59 C94.3322,125.88 111.271,116.388 132.166,116.388 C153.061,116.388 170,125.88 170,137.59 C170,143.527 165.645,148.894 158.628,152.743 C156.759,153.768 157.625,169.197 155.41,169.989 C153.288,170.748 148.098,156.879 145.716,157.392 C141.509,158.296 136.941,158.792 132.166,158.792 C111.271,158.792 94.3322,149.299 94.3322,137.59 Z" style="stroke:#000000;stroke-opacity:1;stroke-width:0.879593;stroke-linejoin:;stroke-miterlimit:2;stroke-linecap:butt;fill-rule:evenodd;fill:#ffffff;fill-opacity:1;"/>
        </g>
        <g id="Shape14">
            <desc shapeID="14" type="0" basicInfo-basicType="4" basicInfo-roundedRectRadius="12" basicInfo-polygonSides="6" basicInfo-starPoints="5" bounding="rect(-1.28868,-1.28869,2.57738,2.57738)" text="" font-familyName="Helvetica" font-pixelSize="20" font-bold="0" font-underline="0" font-alignment="1" strokeStyle="0" markerStart="0" markerEnd="0" shadowEnabled="0" shadowOffsetX="0" shadowOffsetY="2" shadowBlur="4" shadowOpacity="160" blurEnabled="0" blurRadius="4" transform="matrix(1.4982,0,0,1.35153,120.45,143.203)" pers-center="0,0" pers-size="0,0" pers-start="0,0" pers-end="0,0" locked="0" mesh="" flag=""/>
            <path id="shapePath14" d="M118.519,143.203 C118.519,142.241 119.384,141.462 120.45,141.462 C121.516,141.462 122.381,142.241 122.381,143.203 C122.381,144.165 121.516,144.945 120.45,144.945 C119.384,144.945 118.519,144.165 118.519,143.203 Z" style="stroke:#000000;stroke-opacity:1;stroke-width:0.879593;stroke-linejoin:;stroke-miterlimit:2;stroke-linecap:butt;fill-rule:evenodd;fill:#ffffff;fill-opacity:1;"/>
        </g>
        <g id="Shape15">
            <desc shapeID="15" type="0" basicInfo-basicType="4" basicInfo-roundedRectRadius="12" basicInfo-polygonSides="6" basicInfo-starPoints="5" bounding="rect(-1.28868,-1.28869,2.57738,2.57738)" text="" font-familyName="Helvetica" font-pixelSize="20" font-bold="0" font-underline="0" font-alignment="1" strokeStyle="0" markerStart="0" markerEnd="0" shadowEnabled="0" shadowOffsetX="0" shadowOffsetY="2" shadowBlur="4" shadowOpacity="160" blurEnabled="0" blurRadius="4" transform="matrix(1.4982,0,0,1.35153,132.166,143.203)" pers-center="0,0" pers-size="0,0" pers-start="0,0" pers-end="0,0" locked="0" mesh="" flag=""/>
            <path id="shapePath15" d="M130.235,143.203 C130.235,142.241 131.1,141.462 132.166,141.462 C133.232,141.462 134.097,142.241 134.097,143.203 C134.097,144.165 133.232,144.945 132.166,144.945 C131.1,144.945 130.235,144.165 130.235,143.203 Z" style="stroke:#000000;stroke-opacity:1;stroke-width:0.879593;stroke-linejoin:;stroke-miterlimit:2;stroke-linecap:butt;fill-rule:evenodd;fill:#ffffff;fill-opacity:1;"/>
        </g>
        <g id="Shape16">
            <desc shapeID="16" type="0" basicInfo-basicType="4" basicInfo-roundedRectRadius="12" basicInfo-polygonSides="6" basicInfo-starPoints="5" bounding="rect(-1.28868,-1.28869,2.57738,2.57738)" text="" font-familyName="Helvetica" font-pixelSize="20" font-bold="0" font-underline="0" font-alignment="1" strokeStyle="0" markerStart="0" markerEnd="0" shadowEnabled="0" shadowOffsetX="0" shadowOffsetY="2" shadowBlur="4" shadowOpacity="160" blurEnabled="0" blurRadius="4" transform="matrix(1.4982,0,0,1.35153,143.417,143.203)" pers-center="0,0" pers-size="0,0" pers-start="0,0" pers-end="0,0" locked="0" mesh="" flag=""/>
            <path id="shapePath16" d="M141.486,143.203 C141.486,142.241 142.351,141.462 143.417,141.462 C144.483,141.462 145.348,142.241 145.348,143.203 C145.348,144.165 144.483,144.945 143.417,144.945 C142.351,144.945 141.486,144.165 141.486,143.203 Z" style="stroke:#000000;stroke-opacity:1;stroke-width:0.879593;stroke-linejoin:;stroke-miterlimit:2;stroke-linecap:butt;fill-rule:evenodd;fill:#ffffff;fill-opacity:1;"/>
        </g>
    </g>
</svg>
