<?xml version="1.0" encoding="UTF-8" standalone="no"?>
<!-- Created with Inkscape (http://www.inkscape.org/) -->

<svg
   xmlns:osb="http://www.openswatchbook.org/uri/2009/osb"
   xmlns:dc="http://purl.org/dc/elements/1.1/"
   xmlns:cc="http://creativecommons.org/ns#"
   xmlns:rdf="http://www.w3.org/1999/02/22-rdf-syntax-ns#"
   xmlns:svg="http://www.w3.org/2000/svg"
   xmlns="http://www.w3.org/2000/svg"
   xmlns:sodipodi="http://sodipodi.sourceforge.net/DTD/sodipodi-0.dtd"
   xmlns:inkscape="http://www.inkscape.org/namespaces/inkscape"
   width="180"
   height="180"
   viewBox="0 0 180 180"
   id="svg2"
   version="1.1"
   inkscape:version="0.91 r"
   sodipodi:docname="help.svg">
  <defs
     id="defs4">
    <linearGradient
       id="linearGradient5639"
       osb:paint="solid">
      <stop
         style="stop-color:#47a3f5;stop-opacity:1;"
         offset="0"
         id="stop5641" />
    </linearGradient>
  </defs>
  <sodipodi:namedview
     id="base"
     pagecolor="#ffffff"
     bordercolor="#666666"
     borderopacity="1.0"
     inkscape:pageopacity="0.0"
     inkscape:pageshadow="2"
     inkscape:zoom="0.99999999"
     inkscape:cx="-215.70026"
     inkscape:cy="138.41964"
     inkscape:document-units="px"
     inkscape:current-layer="layer1"
     showgrid="false"
     inkscape:window-width="1920"
     inkscape:window-height="1028"
     inkscape:window-x="0"
     inkscape:window-y="0"
     inkscape:window-maximized="1"
     units="px" />
  <metadata
     id="metadata7">
    <rdf:RDF>
      <cc:Work
         rdf:about="">
        <dc:format>image/svg+xml</dc:format>
        <dc:type
           rdf:resource="http://purl.org/dc/dcmitype/StillImage" />
        <dc:title />
      </cc:Work>
    </rdf:RDF>
  </metadata>
  <g
     inkscape:label="Layer 1"
     inkscape:groupmode="layer"
     id="layer1"
     transform="translate(0,-872.36216)">
    <path
       style="fill:#47a3f5;fill-opacity:1;fill-rule:evenodd;stroke:#000000;stroke-width:1.65648139px;stroke-linecap:butt;stroke-linejoin:miter;stroke-opacity:1"
       d="m 18.192771,889.93082 -0.854863,124.37928 142.762102,0.8025 0.85486,-125.98423 z"
       id="path4141"
       inkscape:connector-curvature="0"
       sodipodi:nodetypes="ccccc" />
    <path
       style="fill:#ffffff;fill-opacity:1;fill-rule:evenodd;stroke:#000000;stroke-width:2;stroke-linecap:butt;stroke-linejoin:miter;stroke-opacity:1;stroke-miterlimit:4;stroke-dasharray:none"
       d="m 96.502852,928.73422 -1.765551,74.94238 21.775139,-11.69311 30.60289,55.80811 c 0,0 17.65551,-3.7205 15.30144,-7.4411 -2.35407,-3.7205 -31.77992,-55.27663 -31.77992,-55.27663 l 22.36365,-10.63013 z"
       id="path4139"
       inkscape:connector-curvature="0" />
    <path
       style="fill:#ffffff;fill-opacity:1;fill-rule:evenodd;stroke:#000000;stroke-width:1.11857128px;stroke-linecap:butt;stroke-linejoin:miter;stroke-opacity:1"
       d="m 87.966479,940.09075 c -5.748864,6.21153 -15.553942,30.19082 -15.553942,30.19082 l -12.966269,-9.06036 z"
       id="path4153"
       inkscape:connector-curvature="0" />
    <path
       style="fill:#ffffff;fill-opacity:1;fill-rule:evenodd;stroke:#000000;stroke-width:1.11857128px;stroke-linecap:butt;stroke-linejoin:miter;stroke-opacity:1"
       d="M 92.721216,914.82698 C 90.612395,906.95853 75.102273,885.57611 75.102273,885.57611 l 15.777297,-4.02335 z"
       id="path4153-2"
       inkscape:connector-curvature="0" />
    <path
       style="fill:#ffffff;fill-opacity:1;fill-rule:evenodd;stroke:#000000;stroke-width:1.11857128px;stroke-linecap:butt;stroke-linejoin:miter;stroke-opacity:1"
       d="m 109.98155,928.43863 c 8.89,1.03827 36.54915,-4.38704 36.54915,-4.38704 l -1.48798,14.74493 z"
       id="path4153-7"
       inkscape:connector-curvature="0" />
    <path
       style="fill:#ffffff;fill-opacity:1;fill-rule:evenodd;stroke:#000000;stroke-width:1.11857128px;stroke-linecap:butt;stroke-linejoin:miter;stroke-opacity:1"
       d="m 85.91542,926.91028 c -8.54711,-2.44021 -36.832463,-1.51276 -36.832463,-1.51276 l 4.348589,-14.27568 z"
       id="path4153-3"
       inkscape:connector-curvature="0"
       inkscape:transform-center-x="-9.666917"
       inkscape:transform-center-y="-5.1763759" />
    <path
       style="fill:#ffffff;fill-opacity:1;fill-rule:evenodd;stroke:#000000;stroke-width:1.11857128px;stroke-linecap:butt;stroke-linejoin:miter;stroke-opacity:1"
       d="m 107.78723,916.18136 c 6.79796,-5.27703 20.8204,-27.48162 20.8204,-27.48162 l 11.14754,10.85639 z"
       id="path4153-6"
       inkscape:connector-curvature="0" />
    <path
       id="path5667"
       style="fill:#47a3f5;fill-opacity:1;fill-rule:nonzero;stroke:#000000;stroke-width:0.72094125;stroke-miterlimit:4;stroke-dasharray:none;stroke-opacity:1"
       d="m 100.83317,1036.4913 c -0.59241,-0.2138 -1.192181,-0.6873 -1.753811,-1.385 -1.32247,-1.6426 -1.72677,-3.6811 -1.04751,-5.2815 0.5915,-1.3938 2.022061,-2.481 4.103671,-3.1189 0.46783,-0.1435 1.61972,-0.4042 2.10083,-0.4758 l 0.22872,-0.034 -0.34289,2.5106 c -0.18861,1.3807 -0.34646,2.5144 -0.35082,2.519 -0.005,0 -0.20022,-0.045 -0.43526,-0.1123 -1.76605,-0.4983 -3.440771,-0.2999 -3.859821,0.4572 -0.11273,0.2037 -0.11677,0.5653 -0.009,0.8258 0.19133,0.4643 0.942541,1.1303 1.827001,1.6195 0.45653,0.2527 1.51627,0.756 1.59142,0.756 0.0583,0 0.0548,0.078 -0.0162,0.3676 -0.16221,0.6621 -0.49265,1.1544 -0.90201,1.3441 -0.27947,0.1301 -0.78597,0.1329 -1.13383,0.014 z m -4.125701,0.791 c -0.91505,-2.2811 -2.472566,-6.1628 -3.461124,-8.626 -0.988559,-2.4632 -1.788586,-4.4893 -1.777843,-4.5028 0.0101,-0.014 0.627135,0.4306 1.369763,0.9864 l 1.350234,1.0105 2.78569,6.815 c 1.53213,3.7483 2.78909,6.8281 2.79325,6.844 0.004,0.016 -0.30829,0.387 -0.69433,0.8246 l -0.7019,0.7957 -1.66374,-4.1474 z m -0.89847,5.8927 c -0.80159,-1.5615 -3.140621,-7.1269 -7.297235,-17.3623 -1.252756,-3.0849 -2.268367,-5.6205 -2.256917,-5.6346 0.01136,-0.014 0.817661,0.6322 1.791615,1.4365 l 1.770798,1.4621 0.590856,1.4263 c 2.460748,5.9393 6.285483,15.3501 6.815543,16.7698 l 0.25401,0.6802 -0.19717,0.2268 c -0.14535,0.1672 -1.33791,1.1086 -1.40431,1.1086 -0.006,0 -0.0352,-0.051 -0.0672,-0.1137 z m -6.068123,-0.173 c -0.840334,-1.3565 -3.137924,-8.38 -4.063112,-8.5051 -2.248321,-0.1027 -4.363993,-0.8193 -6.410578,-0.8582 -0.08496,0.1754 -0.18352,0.3424 -0.281112,0.5039 -1.815701,2.7298 -3.298533,6.2152 -4.949724,8.7146 -1.173492,0.1688 -2.739172,0.269 -4.334858,0.023 -0.01351,-0.016 0.372204,-0.9691 0.857161,-2.1164 3.017533,-6.9607 6.175604,-14.5393 8.960789,-20.9318 1.575235,-0.014 3.177838,-0.1695 4.746762,0.018 1.356622,2.1948 2.221773,4.6857 3.19815,6.9495 2.149618,4.8617 4.137503,9.7897 6.060263,14.0702 0.157693,0.3024 0.943404,2.2288 0.920556,2.2572 -0.01578,0.019 -1.059414,0.043 -2.319189,0.052 l -2.290483,0.016 -0.09468,-0.1922 z m -5.903391,-19.8843 c -0.804154,0.2995 -2.755116,0.7109 -3.129882,1.1886 -0.455506,2.4097 -0.893693,4.1471 -1.326831,6.3606 1.898713,0.6972 3.736517,1.566 5.763194,2.0741 l 0.142444,-0.014 c -0.515405,-3.2033 -1.061964,-6.8159 -1.448925,-9.6141 z"
       inkscape:connector-curvature="0" />
  </g>
</svg>
