<?xml version="1.0" encoding="UTF-8" standalone="no"?>
<!-- Created with Inkscape (http://www.inkscape.org/) -->

<svg
   xmlns:osb="http://www.openswatchbook.org/uri/2009/osb"
   xmlns:dc="http://purl.org/dc/elements/1.1/"
   xmlns:cc="http://creativecommons.org/ns#"
   xmlns:rdf="http://www.w3.org/1999/02/22-rdf-syntax-ns#"
   xmlns:svg="http://www.w3.org/2000/svg"
   xmlns="http://www.w3.org/2000/svg"
   xmlns:xlink="http://www.w3.org/1999/xlink"
   xmlns:sodipodi="http://sodipodi.sourceforge.net/DTD/sodipodi-0.dtd"
   xmlns:inkscape="http://www.inkscape.org/namespaces/inkscape"
   width="180"
   height="180"
   viewBox="0 0 180 180"
   id="svg2"
   version="1.1"
   inkscape:version="0.91 r"
   sodipodi:docname="client3.svg">
  <defs
     id="defs4">
    <linearGradient
       inkscape:collect="always"
       id="linearGradient4469">
      <stop
         style="stop-color:#47a3f5;stop-opacity:1;"
         offset="0"
         id="stop4471" />
      <stop
         style="stop-color:#47a3f5;stop-opacity:0;"
         offset="1"
         id="stop4473" />
    </linearGradient>
    <linearGradient
       id="linearGradient5639"
       osb:paint="solid">
      <stop
         style="stop-color:#47a3f5;stop-opacity:1;"
         offset="0"
         id="stop5641" />
    </linearGradient>
    <radialGradient
       inkscape:collect="always"
       xlink:href="#linearGradient4469"
       id="radialGradient4475-7-7"
       cx="-197.85089"
       cy="926.25507"
       fx="-197.85089"
       fy="926.25507"
       r="16.25"
       gradientTransform="matrix(-3.4307692,-1.4515357e-7,1.3213502e-7,-3.1230769,-552.15589,3812.0029)"
       gradientUnits="userSpaceOnUse" />
    <radialGradient
       inkscape:collect="always"
       xlink:href="#linearGradient4469"
       id="radialGradient4475-2-7"
       cx="-197.85089"
       cy="926.25507"
       fx="-197.85089"
       fy="926.25507"
       r="16.25"
       gradientTransform="matrix(-3.4307692,-1.4515357e-7,1.3213502e-7,-3.1230769,-592.15589,3848.0029)"
       gradientUnits="userSpaceOnUse" />
    <radialGradient
       inkscape:collect="always"
       xlink:href="#linearGradient4469"
       id="radialGradient4475-7-4"
       cx="-197.85089"
       cy="926.25507"
       fx="-197.85089"
       fy="926.25507"
       r="16.25"
       gradientTransform="matrix(-3.4307692,-1.4515357e-7,1.3213502e-7,-3.1230769,-552.15589,3848.5029)"
       gradientUnits="userSpaceOnUse" />
  </defs>
  <sodipodi:namedview
     id="base"
     pagecolor="#ffffff"
     bordercolor="#666666"
     borderopacity="1.0"
     inkscape:pageopacity="0.0"
     inkscape:pageshadow="2"
     inkscape:zoom="2"
     inkscape:cx="16.71896"
     inkscape:cy="129.30431"
     inkscape:document-units="px"
     inkscape:current-layer="layer1"
     showgrid="false"
     inkscape:window-width="1920"
     inkscape:window-height="1028"
     inkscape:window-x="0"
     inkscape:window-y="0"
     inkscape:window-maximized="1"
     units="px" />
  <metadata
     id="metadata7">
    <rdf:RDF>
      <cc:Work
         rdf:about="">
        <dc:format>image/svg+xml</dc:format>
        <dc:type
           rdf:resource="http://purl.org/dc/dcmitype/StillImage" />
        <dc:title />
      </cc:Work>
    </rdf:RDF>
  </metadata>
  <g
     inkscape:label="Layer 1"
     inkscape:groupmode="layer"
     id="layer1"
     transform="translate(0,-872.36216)">
    <rect
       style="opacity:1;fill:#47a3f5;fill-opacity:1;fill-rule:nonzero;stroke:#000000;stroke-width:0.5;stroke-linecap:round;stroke-linejoin:round;stroke-miterlimit:4;stroke-dasharray:none;stroke-opacity:1"
       id="rect4459"
       width="31.5"
       height="26.5"
       x="135.5"
       y="885.36218" />
    <rect
       style="opacity:1;fill:#47a3f5;fill-opacity:1;fill-rule:nonzero;stroke:#000000;stroke-width:0.5;stroke-linecap:round;stroke-linejoin:round;stroke-miterlimit:4;stroke-dasharray:none;stroke-opacity:1"
       id="rect4459-5"
       width="31.5"
       height="26.5"
       x="94.75"
       y="884.61218" />
    <rect
       style="opacity:1;fill:#47a3f5;fill-opacity:1;fill-rule:nonzero;stroke:#000000;stroke-width:0.5;stroke-linecap:round;stroke-linejoin:round;stroke-miterlimit:4;stroke-dasharray:none;stroke-opacity:1"
       id="rect4459-2"
       width="31.5"
       height="26.5"
       x="54.75"
       y="884.11218" />
    <rect
       style="opacity:1;fill:#47a3f5;fill-opacity:1;fill-rule:nonzero;stroke:#000000;stroke-width:0.5;stroke-linecap:round;stroke-linejoin:round;stroke-miterlimit:4;stroke-dasharray:none;stroke-opacity:1"
       id="rect4459-7"
       width="31.5"
       height="26.5"
       x="134.125"
       y="921.23718" />
    <rect
       style="opacity:1;fill:url(#radialGradient4475-7-7);fill-opacity:1;fill-rule:nonzero;stroke:#000000;stroke-width:0.5;stroke-linecap:round;stroke-linejoin:round;stroke-miterlimit:4;stroke-dasharray:none;stroke-opacity:1"
       id="rect4459-5-8"
       width="31.5"
       height="26.5"
       x="93.375"
       y="920.48718" />
    <rect
       style="opacity:1;fill:#47a3f5;fill-opacity:1;fill-rule:nonzero;stroke:#000000;stroke-width:0.5;stroke-linecap:round;stroke-linejoin:round;stroke-miterlimit:4;stroke-dasharray:none;stroke-opacity:1"
       id="rect4459-2-7"
       width="31.5"
       height="26.5"
       x="53.375"
       y="919.98718" />
    <rect
       style="opacity:1;fill:#47a3f5;fill-opacity:1;fill-rule:nonzero;stroke:#000000;stroke-width:0.5;stroke-linecap:round;stroke-linejoin:round;stroke-miterlimit:4;stroke-dasharray:none;stroke-opacity:1"
       id="rect4459-0"
       width="31.5"
       height="26.5"
       x="134.125"
       y="957.73718" />
    <rect
       style="opacity:1;fill:url(#radialGradient4475-7-4);fill-opacity:1;fill-rule:nonzero;stroke:#000000;stroke-width:0.5;stroke-linecap:round;stroke-linejoin:round;stroke-miterlimit:4;stroke-dasharray:none;stroke-opacity:1"
       id="rect4459-5-5"
       width="31.5"
       height="26.5"
       x="93.375"
       y="956.98718" />
    <rect
       style="opacity:1;fill:url(#radialGradient4475-2-7);fill-opacity:1;fill-rule:nonzero;stroke:#000000;stroke-width:0.5;stroke-linecap:round;stroke-linejoin:round;stroke-miterlimit:4;stroke-dasharray:none;stroke-opacity:1"
       id="rect4459-2-8"
       width="31.5"
       height="26.5"
       x="53.375"
       y="956.48718" />
    <rect
       style="opacity:1;fill:#47a3f5;fill-opacity:1;fill-rule:nonzero;stroke:#000000;stroke-width:0.5;stroke-linecap:round;stroke-linejoin:round;stroke-miterlimit:4;stroke-dasharray:none;stroke-opacity:1"
       id="rect4459-2-5"
       width="31.5"
       height="26.5"
       x="14.4375"
       y="883.42468" />
    <rect
       style="opacity:1;fill:#47a3f5;fill-opacity:1;fill-rule:nonzero;stroke:#000000;stroke-width:0.5;stroke-linecap:round;stroke-linejoin:round;stroke-miterlimit:4;stroke-dasharray:none;stroke-opacity:1"
       id="rect4459-2-7-6"
       width="31.5"
       height="26.5"
       x="13.0625"
       y="919.29968" />
    <rect
       style="opacity:1;fill:#47a3f5;fill-opacity:1;fill-rule:nonzero;stroke:#000000;stroke-width:0.5;stroke-linecap:round;stroke-linejoin:round;stroke-miterlimit:4;stroke-dasharray:none;stroke-opacity:1"
       id="rect4459-2-8-6"
       width="31.5"
       height="26.5"
       x="13.0625"
       y="955.79968" />
    <rect
       style="opacity:1;fill:#47a3f5;fill-opacity:1;fill-rule:nonzero;stroke:#000000;stroke-width:0.5;stroke-linecap:round;stroke-linejoin:round;stroke-miterlimit:4;stroke-dasharray:none;stroke-opacity:1"
       id="rect4459-0-3"
       width="31.5"
       height="26.5"
       x="133.28125"
       y="992.08093" />
    <rect
       style="opacity:1;fill:#47a3f5;fill-opacity:1;fill-rule:nonzero;stroke:#000000;stroke-width:0.5;stroke-linecap:round;stroke-linejoin:round;stroke-miterlimit:4;stroke-dasharray:none;stroke-opacity:1"
       id="rect4459-5-5-5"
       width="31.5"
       height="26.5"
       x="92.53125"
       y="991.33093" />
    <rect
       style="opacity:1;fill:#47a3f5;fill-opacity:1;fill-rule:nonzero;stroke:#000000;stroke-width:0.5;stroke-linecap:round;stroke-linejoin:round;stroke-miterlimit:4;stroke-dasharray:none;stroke-opacity:1"
       id="rect4459-2-8-2"
       width="31.5"
       height="26.5"
       x="52.53125"
       y="990.83093" />
    <rect
       style="opacity:1;fill:#47a3f5;fill-opacity:1;fill-rule:nonzero;stroke:#000000;stroke-width:0.5;stroke-linecap:round;stroke-linejoin:round;stroke-miterlimit:4;stroke-dasharray:none;stroke-opacity:1"
       id="rect4459-2-8-6-4"
       width="31.5"
       height="26.5"
       x="12.21875"
       y="990.14343" />
    <text
       xml:space="preserve"
       style="font-style:normal;font-weight:normal;font-size:40px;line-height:125%;font-family:sans-serif;letter-spacing:0px;word-spacing:0px;fill:#000000;fill-opacity:1;stroke:none;stroke-width:1px;stroke-linecap:butt;stroke-linejoin:miter;stroke-opacity:1"
       x="-97.22718"
       y="952.6601"
       id="text4331"
       sodipodi:linespacing="125%"><tspan
         sodipodi:role="line"
         id="tspan4333"
         x="-97.22718"
         y="952.6601" /></text>
    <flowRoot
       xml:space="preserve"
       id="flowRoot4343"
       style="fill:black;stroke:none;stroke-opacity:1;stroke-width:1px;stroke-linejoin:miter;stroke-linecap:butt;fill-opacity:1;font-family:sans-serif;font-style:normal;font-weight:normal;font-size:40px;line-height:125%;letter-spacing:0px;word-spacing:0px"><flowRegion
         id="flowRegion4345"><rect
           id="rect4347"
           width="89.095451"
           height="46.669048"
           x="-116.31907"
           y="-37.788887" /></flowRegion><flowPara
         id="flowPara4349" /></flowRoot>    <flowRoot
       xml:space="preserve"
       id="flowRoot4355"
       style="fill:black;stroke:none;stroke-opacity:1;stroke-width:1px;stroke-linejoin:miter;stroke-linecap:butt;fill-opacity:1;font-family:sans-serif;font-style:normal;font-weight:normal;font-size:40px;line-height:125%;letter-spacing:0px;word-spacing:0px"><flowRegion
         id="flowRegion4357"><rect
           id="rect4359"
           width="66.46804"
           height="63.63961"
           x="-103.23759"
           y="83.126373" /></flowRegion><flowPara
         id="flowPara4361" /></flowRoot>    <rect
       style="opacity:1;fill:#47a3f5;fill-opacity:1;fill-rule:nonzero;stroke:#000000;stroke-width:1.0819211;stroke-linejoin:miter;stroke-miterlimit:4;stroke-dasharray:none;stroke-opacity:1"
       id="rect4160"
       width="13.877028"
       height="65.224426"
       x="746.61487"
       y="646.52948"
       transform="matrix(0.69556518,0.718463,-0.71692768,0.69714755,0,0)" />
    <ellipse
       style="opacity:1;fill:#47a3f5;fill-opacity:1;fill-rule:nonzero;stroke:#000000;stroke-width:1.60000002;stroke-linejoin:miter;stroke-miterlimit:4;stroke-dasharray:none;stroke-opacity:1"
       id="path4156"
       cx="93.5"
       cy="957.36218"
       rx="48.5"
       ry="49.5" />
    <ellipse
       style="opacity:1;fill:#ffffff;fill-opacity:1;fill-rule:nonzero;stroke:#000000;stroke-width:1.30576539;stroke-linejoin:miter;stroke-miterlimit:4;stroke-dasharray:none;stroke-opacity:1"
       id="path4156-2"
       cx="93.933899"
       cy="957.11218"
       rx="39.581013"
       ry="40.397118" />
    <path
       id="path5667"
       style="fill:#47a3f5;fill-opacity:1;fill-rule:nonzero;stroke:#000000;stroke-width:0.66437596;stroke-opacity:1"
       d="m 116.4815,966.03567 c -0.96626,-0.43175 -1.94453,-1.38866 -2.86058,-2.79807 -2.15703,-3.3187 -2.81647,-7.43727 -1.70856,-10.67075 0.96477,-2.81572 3.29812,-5.01237 6.69334,-6.30128 0.76305,-0.28966 2.64186,-0.8166 3.4266,-0.96103 l 0.37306,-0.0685 -0.55928,5.0721 c -0.30762,2.78965 -0.56511,5.07999 -0.57221,5.08964 -0.007,0.01 -0.32657,-0.092 -0.70991,-0.22606 -2.88058,-1.00672 -5.61215,-0.60585 -6.29564,0.92393 -0.18369,0.41115 -0.19046,1.14201 -0.0154,1.66813 0.31205,0.93809 1.53733,2.2835 2.97995,3.27209 0.74461,0.51028 2.47312,1.52732 2.59571,1.52732 0.095,0 0.0895,0.15716 -0.0265,0.74286 -0.26457,1.3374 -0.80355,2.33208 -1.47124,2.71521 -0.45583,0.26155 -1.28198,0.26805 -1.84935,0.0146 z m -6.72928,1.59802 c -1.49252,-4.60865 -4.03291,-12.451 -5.64532,-17.42751 -1.6124,-4.97652 -2.9173,-9.0702 -2.89977,-9.09708 0.0175,-0.0269 1.02291,0.86981 2.23418,1.99267 l 2.2023,2.04155 4.54364,13.76883 c 2.499,7.57284 4.54919,13.79521 4.55597,13.82739 0.007,0.0319 -0.50283,0.78184 -1.13251,1.66592 l -1.14484,1.6075 -2.71365,-8.37927 z m -1.46546,11.90554 c -1.30745,-3.15491 -5.12256,-14.39875 -11.902264,-35.07816 -2.043325,-6.23252 -3.699869,-11.35532 -3.681184,-11.38397 0.01872,-0.0287 1.333693,1.27734 2.922239,2.90217 l 2.888285,2.95422 0.963723,2.88133 c 4.013671,11.9997 10.252021,31.01308 11.116611,33.88126 l 0.41428,1.37439 -0.32159,0.45817 c -0.23706,0.33761 -2.18221,2.23967 -2.29051,2.23967 -0.008,0 -0.0574,-0.10309 -0.10959,-0.22908 z m -9.897506,-0.34953 c -1.370637,-2.74067 -5.118138,-16.9307 -6.627195,-17.18327 -3.667144,-0.20767 -7.117946,-1.65539 -10.456058,-1.734 -0.138622,0.3543 -0.299321,0.69196 -0.458508,1.01806 -2.961522,5.51505 -5.380128,12.55699 -8.073326,17.60665 -1.914018,0.34108 -4.467759,0.54345 -7.07041,0.0462 -0.02202,-0.0337 0.607095,-1.95787 1.398082,-4.27588 4.921773,-14.06319 10.072812,-29.37475 14.615616,-42.28985 2.569299,-0.0175 5.183257,-0.34242 7.742262,0.0365 2.212734,4.4342 3.623859,9.46678 5.216384,14.04063 3.50618,9.82226 6.748549,19.77848 9.884679,28.42669 0.25723,0.61092 1.53875,4.50319 1.5015,4.56036 -0.0257,0.0394 -1.72799,0.0864 -3.78275,0.10409 l -3.735927,0.0319 -0.154349,-0.38857 z m -9.628819,-40.1736 c -1.311624,0.6052 -4.493756,1.43656 -5.105022,2.40164 -0.742953,4.86842 -1.457689,8.37837 -2.164146,12.85034 3.096921,1.40872 6.09451,3.1641 9.400139,4.1905 l 0.232336,-0.0186 c -0.84066,-6.47159 -1.732143,-13.77043 -2.363307,-19.42382 z"
       inkscape:connector-curvature="0" />
  </g>
</svg>
