<?xml version="1.0"?>
<svg version="1.1" xmlns="http://www.w3.org/2000/svg" xmlns:xlink="http://www.w3.org/1999/xlink" width="180" height="180">
    <desc iVinci="yes" version="4.6" gridStep="20" showGrid="no" snapToGrid="no" codePlatform="0"/>
    <g id="Layer1" name="Layer 1" opacity="1">
        <g id="Shape1">
            <desc shapeID="1" type="0" basicInfo-basicType="0" basicInfo-roundedRectRadius="12" basicInfo-polygonSides="6" basicInfo-starPoints="5" bounding="rect(-44.5476,-23.3345,89.0954,46.669)" text="" font-familyName="" font-pixelSize="20" font-bold="0" font-underline="0" font-alignment="1" strokeStyle="0" markerStart="0" markerEnd="0" shadowEnabled="0" shadowOffsetX="0" shadowOffsetY="2" shadowBlur="4" shadowOpacity="160" blurEnabled="0" blurRadius="4" transform="matrix(1,0,0,1,-71.7713,-886.817)" pers-center="0,0" pers-size="0,0" pers-start="0,0" pers-end="0,0" locked="0" mesh="" flag=""/>
            <path id="shapePath1" d="M-116.319,-910.151 L-27.2236,-910.151 L-27.2236,-863.482 L-116.319,-863.482 L-116.319,-910.151 Z" style="stroke:none;fill-rule:evenodd;fill:#000000;fill-opacity:1;"/>
        </g>
        <g id="Shape2">
            <desc shapeID="2" type="0" basicInfo-basicType="0" basicInfo-roundedRectRadius="12" basicInfo-polygonSides="6" basicInfo-starPoints="5" bounding="rect(-33.2342,-31.82,66.4684,63.64)" text="" font-familyName="" font-pixelSize="20" font-bold="0" font-underline="0" font-alignment="1" strokeStyle="0" markerStart="0" markerEnd="0" shadowEnabled="0" shadowOffsetX="0" shadowOffsetY="2" shadowBlur="4" shadowOpacity="160" blurEnabled="0" blurRadius="4" transform="matrix(1,0,0,1,-70.0038,-757.416)" pers-center="0,0" pers-size="0,0" pers-start="0,0" pers-end="0,0" locked="0" mesh="" flag=""/>
            <path id="shapePath2" d="M-103.238,-789.236 L-36.7696,-789.236 L-36.7696,-725.596 L-103.238,-725.596 L-103.238,-789.236 Z" style="stroke:none;fill-rule:evenodd;fill:#000000;fill-opacity:1;"/>
        </g>
        <g id="Shape3">
            <desc shapeID="3" type="0" basicInfo-basicType="1" basicInfo-roundedRectRadius="12" basicInfo-polygonSides="6" basicInfo-starPoints="5" bounding="rect(-80.3305,-8.07556,160.661,16.1511)" text="" font-familyName="Helvetica" font-pixelSize="20" font-bold="0" font-underline="0" font-alignment="1" strokeStyle="0" markerStart="0" markerEnd="0" shadowEnabled="0" shadowOffsetX="0" shadowOffsetY="2" shadowBlur="4" shadowOpacity="160" blurEnabled="0" blurRadius="4" transform="matrix(1,0,0,0.763158,89.8936,167.036)" pers-center="0,0" pers-size="0,0" pers-start="0,0" pers-end="0,0" locked="0" mesh="" flag=""/>
            <path id="shapePath3" d="M9.56314,160.873 L170.224,160.873 L170.224,173.199 L9.56314,173.199 L9.56314,160.873 Z" style="stroke:#000000;stroke-opacity:1;stroke-width:0.462386;stroke-linejoin:miter;stroke-miterlimit:2;stroke-linecap:butt;fill-rule:evenodd;fill:#47a3f5;fill-opacity:1;"/>
        </g>
        <g id="Shape4">
            <desc shapeID="4" type="0" basicInfo-basicType="1" basicInfo-roundedRectRadius="12" basicInfo-polygonSides="6" basicInfo-starPoints="5" bounding="rect(-72.0424,-6.37543,144.085,12.7509)" text="" font-familyName="Helvetica" font-pixelSize="20" font-bold="0" font-underline="0" font-alignment="1" strokeStyle="0" markerStart="0" markerEnd="0" shadowEnabled="0" shadowOffsetX="0" shadowOffsetY="2" shadowBlur="4" shadowOpacity="160" blurEnabled="0" blurRadius="4" transform="matrix(1,0,0,0.8,89.8936,154.073)" pers-center="0,0" pers-size="0,0" pers-start="0,0" pers-end="0,0" locked="0" mesh="" flag=""/>
            <path id="shapePath4" d="M17.8512,148.973 L161.936,148.973 L161.936,159.173 L17.8512,159.173 L17.8512,148.973 Z" style="stroke:#000000;stroke-opacity:1;stroke-width:0.462386;stroke-linejoin:miter;stroke-miterlimit:2;stroke-linecap:butt;fill-rule:evenodd;fill:#47a3f5;fill-opacity:1;"/>
        </g>
        <g id="Shape5">
            <desc shapeID="5" type="0" basicInfo-basicType="5" basicInfo-roundedRectRadius="12" basicInfo-polygonSides="6" basicInfo-starPoints="5" bounding="rect(-59.4511,-68.6481,118.902,137.296)" text="" font-familyName="Helvetica" font-pixelSize="20" font-bold="0" font-underline="0" font-alignment="1" strokeStyle="0" markerStart="0" markerEnd="0" shadowEnabled="0" shadowOffsetX="0" shadowOffsetY="2" shadowBlur="4" shadowOpacity="160" blurEnabled="0" blurRadius="4" transform="matrix(9.64494e-06,-0.373331,1.19035,3.17097e-05,90.0006,25.189)" pers-center="0,0" pers-size="0,0" pers-start="0,0" pers-end="0,0" locked="0" mesh="" flag=""/>
            <path id="shapePath5" d="M90.0016,2.99411 L171.715,47.3862 L8.28499,47.3815 L90.0016,2.99411 Z" style="stroke:#000000;stroke-opacity:1;stroke-width:0.462386;stroke-linejoin:miter;stroke-miterlimit:2;stroke-linecap:butt;fill-rule:evenodd;fill:#47a3f5;fill-opacity:1;"/>
        </g>
        <g id="Shape6">
            <desc shapeID="6" type="0" basicInfo-basicType="1" basicInfo-roundedRectRadius="12" basicInfo-polygonSides="6" basicInfo-starPoints="5" bounding="rect(-12.3258,-43.1404,24.6517,86.2809)" text="" font-familyName="Helvetica" font-pixelSize="20" font-bold="0" font-underline="0" font-alignment="1" strokeStyle="0" markerStart="0" markerEnd="0" shadowEnabled="0" shadowOffsetX="0" shadowOffsetY="2" shadowBlur="4" shadowOpacity="160" blurEnabled="0" blurRadius="4" transform="matrix(1,0,0,1.03941,142.385,102.432)" pers-center="0,0" pers-size="0,0" pers-start="0,0" pers-end="0,0" locked="0" mesh="" flag=""/>
            <path id="shapePath6" d="M130.059,57.5915 L154.711,57.5915 L154.711,147.273 L130.059,147.273 L130.059,57.5915 Z" style="stroke:#000000;stroke-opacity:1;stroke-width:0.462386;stroke-linejoin:miter;stroke-miterlimit:2;stroke-linecap:butt;fill-rule:evenodd;fill:#47a3f5;fill-opacity:1;"/>
        </g>
        <g id="Shape7">
            <desc shapeID="7" type="0" basicInfo-basicType="0" basicInfo-roundedRectRadius="12" basicInfo-polygonSides="6" basicInfo-starPoints="5" bounding="rect(-16.7716,-11.5517,33.5432,23.1034)" text="" font-familyName="" font-pixelSize="20" font-bold="0" font-underline="0" font-alignment="1" strokeStyle="0" markerStart="0" markerEnd="0" shadowEnabled="0" shadowOffsetX="0" shadowOffsetY="2" shadowBlur="4" shadowOpacity="160" blurEnabled="0" blurRadius="4" transform="matrix(1,0,0,1,90.0001,28.1654)" pers-center="0,0" pers-size="0,0" pers-start="0,0" pers-end="0,0" locked="0" mesh="" flag=""/>
            <path id="shapePath7" d="M103.267,33.0431 C102.696,32.8331 102.117,32.3681 101.575,31.6831 C100.299,30.0701 99.909,28.0691 100.564,26.4971 C101.135,25.1291 102.515,24.0611 104.524,23.4351 C104.975,23.2941 106.087,23.0381 106.551,22.9681 L106.772,22.9341 L106.441,25.3991 C106.259,26.7551 106.107,27.8681 106.102,27.8731 C106.098,27.8771 105.909,27.8281 105.682,27.7631 C103.978,27.2741 102.362,27.4691 101.958,28.2121 C101.849,28.4121 101.845,28.7671 101.949,29.0231 C102.134,29.4791 102.859,30.1331 103.712,30.6131 C104.152,30.8611 105.175,31.3551 105.248,31.3551 C105.304,31.3551 105.3,31.4321 105.232,31.7161 C105.075,32.3661 104.756,32.8501 104.361,33.0361 C104.092,33.1631 103.603,33.1661 103.267,33.0431 L103.267,33.0431 M99.2865,33.8201 C98.4036,31.5801 96.9008,27.7681 95.9469,25.3501 C94.9931,22.9311 94.2211,20.9421 94.2315,20.9291 C94.2419,20.9161 94.8366,21.3511 95.5532,21.8971 L96.856,22.8891 L99.5439,29.5811 C101.022,33.2611 102.235,36.2851 102.239,36.3011 C102.243,36.3161 101.942,36.6811 101.569,37.1111 L100.892,37.8921 L99.2865,33.8201 M98.4196,39.6061 C97.6461,38.0721 95.3892,32.6081 91.3786,22.5581 C90.1698,19.5291 89.1899,17.0391 89.2009,17.0251 C89.212,17.0111 89.9899,17.6461 90.9296,18.4361 L92.6382,19.8711 L93.2083,21.2721 C95.5827,27.1041 99.2731,36.3441 99.7846,37.7381 L100.03,38.4061 L99.8394,38.6291 C99.6992,38.7931 98.5485,39.7171 98.4844,39.7171 C98.4794,39.7171 98.4505,39.6671 98.4196,39.6061 M92.5645,39.4361 C91.7537,38.1041 89.5368,31.2081 88.6441,31.0851 C86.4747,30.9841 84.4334,30.2801 82.4586,30.2421 C82.3766,30.4141 82.2816,30.5781 82.1874,30.7371 C80.4355,33.4171 79.0047,36.8401 77.4115,39.2941 C76.2792,39.4591 74.7685,39.5581 73.2288,39.3161 C73.2157,39.3001 73.588,38.3641 74.0559,37.2381 C76.9675,30.4031 80.0147,22.9611 82.702,16.6851 C84.222,16.6761 85.7683,16.5181 87.2821,16.7031 C88.5911,18.8581 89.4259,21.3031 90.368,23.5261 C92.4421,28.3001 94.3602,33.1391 96.2154,37.3421 C96.3676,37.6391 97.1257,39.5301 97.1037,39.5581 C97.0884,39.5771 96.0814,39.6001 94.8659,39.6091 L92.6558,39.6241 L92.5645,39.4351 L92.5645,39.4361 M86.8684,19.9111 C86.0925,20.2061 84.2101,20.6101 83.8485,21.0791 C83.409,23.4451 82.9861,25.1511 82.5682,27.3241 C84.4003,28.0091 86.1735,28.8621 88.129,29.3611 L88.2665,29.3521 C87.7692,26.2061 87.2418,22.6591 86.8684,19.9121 L86.8684,19.9111 Z" style="stroke:#000000;stroke-opacity:1;stroke-width:0.356233;stroke-linejoin:miter;stroke-miterlimit:2;stroke-linecap:butt;fill-rule:evenodd;fill:#ffffff;fill-opacity:1;"/>
        </g>
        <g id="Shape8">
            <desc shapeID="8" type="0" basicInfo-basicType="1" basicInfo-roundedRectRadius="12" basicInfo-polygonSides="6" basicInfo-starPoints="5" bounding="rect(-72.0424,-6.37543,144.085,12.7509)" text="" font-familyName="Helvetica" font-pixelSize="20" font-bold="0" font-underline="0" font-alignment="1" strokeStyle="0" markerStart="0" markerEnd="0" shadowEnabled="0" shadowOffsetX="0" shadowOffsetY="2" shadowBlur="4" shadowOpacity="160" blurEnabled="0" blurRadius="4" transform="matrix(1,0,0,0.566666,89.8936,52.274)" pers-center="0,0" pers-size="0,0" pers-start="0,0" pers-end="0,0" locked="0" mesh="" flag=""/>
            <path id="shapePath8" d="M17.8512,48.6613 L161.936,48.6613 L161.936,55.8868 L17.8512,55.8868 L17.8512,48.6613 Z" style="stroke:#000000;stroke-opacity:1;stroke-width:0.462386;stroke-linejoin:miter;stroke-miterlimit:2;stroke-linecap:butt;fill-rule:evenodd;fill:#47a3f5;fill-opacity:1;"/>
        </g>
        <g id="Shape9">
            <desc shapeID="9" type="0" basicInfo-basicType="1" basicInfo-roundedRectRadius="12" basicInfo-polygonSides="6" basicInfo-starPoints="5" bounding="rect(-12.3258,-43.1404,24.6517,86.2809)" text="" font-familyName="Helvetica" font-pixelSize="20" font-bold="0" font-underline="0" font-alignment="1" strokeStyle="0" markerStart="0" markerEnd="0" shadowEnabled="0" shadowOffsetX="0" shadowOffsetY="2" shadowBlur="4" shadowOpacity="160" blurEnabled="0" blurRadius="4" transform="matrix(1,0,0,1.03941,89.8936,102.432)" pers-center="0,0" pers-size="0,0" pers-start="0,0" pers-end="0,0" locked="0" mesh="" flag=""/>
            <path id="shapePath9" d="M77.5678,57.5915 L102.219,57.5915 L102.219,147.273 L77.5678,147.273 L77.5678,57.5915 Z" style="stroke:#000000;stroke-opacity:1;stroke-width:0.462386;stroke-linejoin:miter;stroke-miterlimit:2;stroke-linecap:butt;fill-rule:evenodd;fill:#47a3f5;fill-opacity:1;"/>
        </g>
        <g id="Shape10">
            <desc shapeID="10" type="0" basicInfo-basicType="1" basicInfo-roundedRectRadius="12" basicInfo-polygonSides="6" basicInfo-starPoints="5" bounding="rect(-12.3258,-43.1404,24.6517,86.2809)" text="" font-familyName="Helvetica" font-pixelSize="20" font-bold="0" font-underline="0" font-alignment="1" strokeStyle="0" markerStart="0" markerEnd="0" shadowEnabled="0" shadowOffsetX="0" shadowOffsetY="2" shadowBlur="4" shadowOpacity="160" blurEnabled="0" blurRadius="4" transform="matrix(1,0,0,1.03941,38.2526,102.432)" pers-center="0,0" pers-size="0,0" pers-start="0,0" pers-end="0,0" locked="0" mesh="" flag=""/>
            <path id="shapePath10" d="M25.9268,57.5915 L50.5785,57.5915 L50.5785,147.273 L25.9268,147.273 L25.9268,57.5915 Z" style="stroke:#000000;stroke-opacity:1;stroke-width:0.462386;stroke-linejoin:miter;stroke-miterlimit:2;stroke-linecap:butt;fill-rule:evenodd;fill:#47a3f5;fill-opacity:1;"/>
        </g>
    </g>
</svg>
