<?xml version="1.0"?>
<svg version="1.1" xmlns="http://www.w3.org/2000/svg" xmlns:xlink="http://www.w3.org/1999/xlink" width="300" height="300">
    <desc iVinci="yes" version="4.6" gridStep="20" showGrid="no" snapToGrid="no" codePlatform="0"/>
    <g id="Layer1" name="Layer 1" opacity="1">
        <g id="Shape1">
            <desc shapeID="1" type="0" basicInfo-basicType="1" basicInfo-roundedRectRadius="12" basicInfo-polygonSides="6" basicInfo-starPoints="5" bounding="rect(-177.5,-130,355,259.999)" text="" font-familyName="Helvetica" font-pixelSize="20" font-bold="0" font-underline="0" font-alignment="1" strokeStyle="0" markerStart="0" markerEnd="0" shadowEnabled="0" shadowOffsetX="0" shadowOffsetY="2" shadowBlur="4" shadowOpacity="160" blurEnabled="0" blurRadius="4" transform="matrix(0.836206,0,0,1.14187,149.979,149.994)" pers-center="0,0" pers-size="0,0" pers-start="0,0" pers-end="0,0" locked="0" mesh="" flag=""/>
            <path id="shapePath1" d="M1.55246,1.55122 L298.406,1.55122 L298.406,298.437 L1.55246,298.437 L1.55246,1.55122 Z" style="stroke:#47a3f5;stroke-opacity:1;stroke-width:3;stroke-linejoin:miter;stroke-miterlimit:2;stroke-linecap:butt;fill-rule:evenodd;fill:#ffffff;fill-opacity:1;"/>
        </g>
        <g id="Shape2">
            <desc shapeID="2" type="0" basicInfo-basicType="0" basicInfo-roundedRectRadius="12" basicInfo-polygonSides="6" basicInfo-starPoints="5" bounding="rect(-75.9994,-58.1338,151.999,116.267)" text="" font-familyName="" font-pixelSize="20" font-bold="0" font-underline="0" font-alignment="1" strokeStyle="0" markerStart="0" markerEnd="0" shadowEnabled="0" shadowOffsetX="0" shadowOffsetY="2" shadowBlur="4" shadowOpacity="160" blurEnabled="0" blurRadius="4" transform="matrix(1,0,0,1,119.226,143.5)" pers-center="0,0" pers-size="0,0" pers-start="0,0" pers-end="0,0" locked="0" mesh="" flag=""/>
            <path id="shapePath2" d="M166.326,200.68 C161.164,193.95 147.051,159.104 141.367,158.484 C127.556,157.974 114.56,154.419 101.989,154.226 C101.467,155.096 100.861,155.925 100.262,156.726 C89.1084,170.269 79.9997,187.561 69.8568,199.962 C62.6484,200.799 53.0308,201.296 43.2289,200.075 C43.1459,199.992 45.5153,195.267 48.4943,189.575 C67.0302,155.041 86.4295,117.441 103.538,85.7258 C113.214,85.6827 123.059,84.885 132.696,85.8158 C141.03,96.7047 146.344,109.063 152.342,120.295 C165.547,144.415 177.758,168.864 189.569,190.101 C190.537,191.601 195.364,201.159 195.223,201.299 C195.126,201.396 188.716,201.511 180.977,201.555 L166.907,201.634 L166.326,200.68 M130.063,102.028 C125.123,103.514 113.139,105.555 110.837,107.925 C108.039,119.88 105.347,128.5 102.686,139.481 C114.35,142.941 125.639,147.251 138.088,149.772 L138.963,149.726 C135.797,133.834 132.44,115.91 130.063,102.028 Z" style="stroke:none;fill-rule:evenodd;fill:#47a3f5;fill-opacity:1;"/>
        </g>
        <g id="Shape3">
            <desc shapeID="3" type="0" basicInfo-basicType="0" basicInfo-roundedRectRadius="12" basicInfo-polygonSides="6" basicInfo-starPoints="5" bounding="rect(-34.4697,-57.3295,68.9396,114.659)" text="" font-familyName="" font-pixelSize="20" font-bold="0" font-underline="0" font-alignment="1" strokeStyle="0" markerStart="0" markerEnd="0" shadowEnabled="0" shadowOffsetX="0" shadowOffsetY="2" shadowBlur="4" shadowOpacity="160" blurEnabled="0" blurRadius="4" transform="matrix(1,0,0,1,179.381,144.772)" pers-center="0,0" pers-size="0,0" pers-start="0,0" pers-end="0,0" locked="0" mesh="" flag=""/>
            <path id="shapePath3" d="M203.601,201.538 C198.677,193.791 184.309,166.18 158.776,115.399 C151.08,100.094 144.842,87.514 144.912,87.4436 C144.982,87.3734 149.935,90.5803 155.918,94.5703 L166.795,101.825 L170.425,108.9 C185.541,138.367 209.035,185.058 212.291,192.101 L213.851,195.476 L212.64,196.601 C211.747,197.43 204.422,202.101 204.014,202.101 C203.983,202.101 203.798,201.848 203.601,201.538 Z" style="stroke:none;fill-rule:evenodd;fill:#47a3f5;fill-opacity:1;"/>
        </g>
        <g id="Shape4">
            <desc shapeID="4" type="0" basicInfo-basicType="0" basicInfo-roundedRectRadius="12" basicInfo-polygonSides="6" basicInfo-starPoints="5" bounding="rect(-25.49,-42.8567,50.9799,85.7134)" text="" font-familyName="" font-pixelSize="20" font-bold="0" font-underline="0" font-alignment="1" strokeStyle="0" markerStart="0" markerEnd="0" shadowEnabled="0" shadowOffsetX="0" shadowOffsetY="2" shadowBlur="4" shadowOpacity="160" blurEnabled="0" blurRadius="4" transform="matrix(1,0,0,1,202.427,150.022)" pers-center="0,0" pers-size="0,0" pers-start="0,0" pers-end="0,0" locked="0" mesh="" flag=""/>
            <path id="shapePath4" d="M209.12,172.302 C203.499,160.985 193.932,141.727 187.859,129.507 C181.787,117.286 176.872,107.233 176.938,107.167 C177.004,107.101 180.791,109.303 185.353,112.061 L193.647,117.074 L210.758,150.885 C220.17,169.482 227.891,184.762 227.917,184.841 C227.942,184.92 226.023,186.761 223.652,188.932 L219.34,192.879 L209.12,172.302 Z" style="stroke:none;fill-rule:evenodd;fill:#47a3f5;fill-opacity:1;"/>
        </g>
        <g id="Shape5">
            <desc shapeID="5" type="0" basicInfo-basicType="0" basicInfo-roundedRectRadius="12" basicInfo-polygonSides="6" basicInfo-starPoints="5" bounding="rect(-20.756,-25.7671,41.512,51.5342)" text="" font-familyName="" font-pixelSize="20" font-bold="0" font-underline="0" font-alignment="1" strokeStyle="0" markerStart="0" markerEnd="0" shadowEnabled="0" shadowOffsetX="0" shadowOffsetY="2" shadowBlur="4" shadowOpacity="160" blurEnabled="0" blurRadius="4" transform="matrix(1,0,0,1,236.017,143.068)" pers-center="0,0" pers-size="0,0" pers-start="0,0" pers-end="0,0" locked="0" mesh="" flag=""/>
            <path id="shapePath5" d="M234.463,168.378 C230.824,167.318 227.14,164.968 223.69,161.507 C215.566,153.358 213.083,143.244 217.255,135.304 C220.889,128.389 229.676,122.995 242.463,119.83 C245.337,119.119 252.413,117.825 255.368,117.47 L256.773,117.301 L254.667,129.757 C253.508,136.607 252.539,142.231 252.512,142.255 C252.485,142.279 251.282,142.029 249.838,141.7 C238.99,139.228 228.702,140.212 226.128,143.969 C225.436,144.978 225.411,146.773 226.07,148.065 C227.245,150.369 231.86,153.673 237.293,156.1 C240.097,157.353 246.607,159.851 247.069,159.851 C247.426,159.851 247.405,160.237 246.969,161.675 C245.973,164.959 243.943,167.402 241.428,168.343 C239.712,168.985 236.6,169.001 234.463,168.379 L234.463,168.378 Z" style="stroke:none;fill-rule:evenodd;fill:#47a3f5;fill-opacity:1;"/>
        </g>
    </g>
</svg>
