<?xml version="1.0"?>
<svg version="1.1" xmlns="http://www.w3.org/2000/svg" xmlns:xlink="http://www.w3.org/1999/xlink" width="180" height="180">
    <desc iVinci="yes" version="4.6" gridStep="20" showGrid="no" snapToGrid="no" codePlatform="0"/>
    <g id="Layer1" name="Layer 1" opacity="1">
        <g id="Shape1">
            <desc shapeID="1" type="0" basicInfo-basicType="0" basicInfo-roundedRectRadius="12" basicInfo-polygonSides="6" basicInfo-starPoints="5" bounding="rect(-13.3786,-9.44142,26.7571,18.8828)" text="" font-familyName="" font-pixelSize="20" font-bold="0" font-underline="0" font-alignment="1" strokeStyle="0" markerStart="0" markerEnd="0" shadowEnabled="0" shadowOffsetX="0" shadowOffsetY="2" shadowBlur="4" shadowOpacity="160" blurEnabled="0" blurRadius="4" transform="matrix(1,0,0,1,163.232,13.4637)" pers-center="0,0" pers-size="0,0" pers-start="0,0" pers-end="0,0" locked="0" mesh="" flag=""/>
            <path id="shapePath1" d="M173.815,17.4502 C173.359,17.2787 172.898,16.8986 172.466,16.3387 C171.448,15.0204 171.136,13.3844 171.659,12.1 C172.115,10.9815 173.216,10.109 174.818,9.59698 C175.178,9.48193 176.064,9.27261 176.435,9.21523 L176.611,9.18793 L176.347,11.2027 C176.202,12.3108 176.08,13.2206 176.077,13.2244 C176.073,13.2284 175.923,13.1879 175.742,13.1346 C174.383,12.7347 173.094,12.894 172.771,13.5016 C172.684,13.665 172.681,13.9553 172.764,14.1643 C172.911,14.5369 173.49,15.0713 174.17,15.464 C174.522,15.6667 175.337,16.0707 175.395,16.0707 C175.44,16.0707 175.437,16.1331 175.383,16.3658 C175.258,16.897 175.003,17.2921 174.688,17.4443 C174.473,17.5482 174.083,17.5508 173.816,17.4493 L173.815,17.4502 M170.64,18.0849 C169.936,16.2543 168.737,13.1391 167.976,11.1623 C167.215,9.18549 166.599,7.55938 166.608,7.5487 C166.616,7.5381 167.09,7.89421 167.662,8.34024 L168.701,9.1512 L170.845,14.6205 C172.024,17.6287 172.992,20.1003 172.995,20.1131 C172.999,20.1258 172.758,20.4237 172.461,20.7749 L171.92,21.4134 L170.64,18.0849 M169.948,22.8141 C169.331,21.5609 167.531,17.0946 164.332,8.88019 C163.368,6.40448 162.586,4.36958 162.595,4.35818 C162.603,4.34688 163.224,4.86558 163.974,5.511 L165.337,6.6845 L165.791,7.82903 C167.685,12.5956 170.629,20.1482 171.037,21.2875 L171.233,21.8335 L171.081,22.0155 C170.969,22.1496 170.051,22.9051 170,22.9051 C169.996,22.9051 169.973,22.8642 169.948,22.8141 M165.278,22.6753 C164.631,21.5866 162.863,15.95 162.151,15.8497 C160.42,15.7671 158.792,15.1921 157.216,15.1609 C157.151,15.3016 157.075,15.4357 157,15.5653 C155.603,17.756 154.461,20.5532 153.19,22.5591 C152.287,22.6946 151.082,22.775 149.854,22.5773 C149.844,22.5639 150.14,21.7995 150.514,20.8788 C152.836,15.2925 155.267,9.21039 157.411,4.08017 C158.623,4.07417 159.857,3.94416 161.064,4.09467 C162.108,5.85605 162.774,7.85512 163.526,9.67197 C165.18,13.5736 166.71,17.5285 168.19,20.9638 C168.312,21.2065 168.916,22.7526 168.899,22.7753 C168.887,22.7911 168.083,22.8096 167.114,22.8167 L165.351,22.8293 L165.278,22.6749 L165.278,22.6753 M160.734,6.7173 C160.115,6.95771 158.614,7.28796 158.325,7.6713 C157.975,9.60517 157.637,10.9994 157.304,12.7758 C158.765,13.3354 160.18,14.0326 161.74,14.4404 L161.849,14.4334 C161.453,11.8627 161.032,8.96341 160.734,6.71774 L160.734,6.7173 Z" style="stroke:#000000;stroke-opacity:1;stroke-width:0.287642;stroke-linejoin:miter;stroke-miterlimit:2;stroke-linecap:butt;fill-rule:nonzero;fill:#47a3f5;fill-opacity:1;"/>
        </g>
        <g id="Shape2">
            <desc shapeID="2" type="0" basicInfo-basicType="0" basicInfo-roundedRectRadius="12" basicInfo-polygonSides="6" basicInfo-starPoints="5" bounding="rect(-44.5477,-23.3345,89.0955,46.6691)" text="" font-familyName="" font-pixelSize="20" font-bold="0" font-underline="0" font-alignment="1" strokeStyle="0" markerStart="0" markerEnd="0" shadowEnabled="0" shadowOffsetX="0" shadowOffsetY="2" shadowBlur="4" shadowOpacity="160" blurEnabled="0" blurRadius="4" transform="matrix(1,0,0,1,-71.7713,-886.817)" pers-center="0,0" pers-size="0,0" pers-start="0,0" pers-end="0,0" locked="0" mesh="" flag=""/>
            <path id="shapePath2" d="M-116.319,-910.151 L-27.2236,-910.151 L-27.2236,-863.482 L-116.319,-863.482 L-116.319,-910.151 Z" style="stroke:none;fill-rule:evenodd;fill:#000000;fill-opacity:1;"/>
        </g>
        <g id="Shape3">
            <desc shapeID="3" type="0" basicInfo-basicType="0" basicInfo-roundedRectRadius="12" basicInfo-polygonSides="6" basicInfo-starPoints="5" bounding="rect(-33.234,-31.8198,66.468,63.6396)" text="" font-familyName="" font-pixelSize="20" font-bold="0" font-underline="0" font-alignment="1" strokeStyle="0" markerStart="0" markerEnd="0" shadowEnabled="0" shadowOffsetX="0" shadowOffsetY="2" shadowBlur="4" shadowOpacity="160" blurEnabled="0" blurRadius="4" transform="matrix(1,0,0,1,-70.0036,-757.416)" pers-center="0,0" pers-size="0,0" pers-start="0,0" pers-end="0,0" locked="0" mesh="" flag=""/>
            <path id="shapePath3" d="M-103.238,-789.236 L-36.7696,-789.236 L-36.7696,-725.596 L-103.238,-725.596 L-103.238,-789.236 Z" style="stroke:none;fill-rule:evenodd;fill:#000000;fill-opacity:1;"/>
        </g>
        <g id="Shape4">
            <desc shapeID="4" type="0" basicInfo-basicType="0" basicInfo-roundedRectRadius="12" basicInfo-polygonSides="6" basicInfo-starPoints="5" bounding="rect(-53.4208,-51.5443,106.842,103.089)" text="" font-familyName="" font-pixelSize="20" font-bold="0" font-underline="0" font-alignment="1" strokeStyle="0" markerStart="0" markerEnd="0" shadowEnabled="0" shadowOffsetX="0" shadowOffsetY="2" shadowBlur="4" shadowOpacity="160" blurEnabled="0" blurRadius="4" transform="matrix(1,0,0,1,97.0452,87.1848)" pers-center="0,0" pers-size="0,0" pers-start="0,0" pers-end="0,0" locked="0" mesh="" flag=""/>
            <path id="shapePath4" d="M150.466,87.1848 C150.466,115.652 126.549,138.729 97.0452,138.729 C67.5417,138.729 43.6244,115.652 43.6244,87.1848 C43.6244,58.7177 67.5417,35.6405 97.0452,35.6405 C126.549,35.6405 150.466,58.7177 150.466,87.1848 Z" style="stroke:#000000;stroke-opacity:1;stroke-width:0.631;stroke-linejoin:round;stroke-miterlimit:2;stroke-linecap:round;fill-rule:evenodd;fill:#47a3f5;fill-opacity:1;"/>
        </g>
        <g id="Shape5">
            <desc shapeID="5" type="0" basicInfo-basicType="0" basicInfo-roundedRectRadius="12" basicInfo-polygonSides="6" basicInfo-starPoints="5" bounding="rect(-80.9317,-81.1085,161.863,162.217)" text="" font-familyName="" font-pixelSize="20" font-bold="0" font-underline="0" font-alignment="1" strokeStyle="0" markerStart="0" markerEnd="0" shadowEnabled="0" shadowOffsetX="0" shadowOffsetY="2" shadowBlur="4" shadowOpacity="160" blurEnabled="0" blurRadius="4" transform="matrix(1,0,0,1,95.9897,88.7832)" pers-center="0,0" pers-size="0,0" pers-start="0,0" pers-end="0,0" locked="0" mesh="" flag=""/>
            <path id="shapePath5" d="M176.921,88.7832 C176.921,133.578 140.687,169.892 95.9897,169.892 C51.2924,169.892 15.058,133.578 15.058,88.7832 C15.058,43.9882 51.2924,7.67471 95.9897,7.67471 C140.687,7.67471 176.921,43.9882 176.921,88.7832 Z" style="stroke:#000000;stroke-opacity:1;stroke-width:0.2;stroke-linejoin:round;stroke-miterlimit:2;stroke-linecap:round;fill:none;"/>
        </g>
        <g id="Shape6">
            <desc shapeID="6" type="0" basicInfo-basicType="0" basicInfo-roundedRectRadius="12" basicInfo-polygonSides="6" basicInfo-starPoints="5" bounding="rect(-3.39116,-5.64413,6.78231,11.2883)" text="" font-familyName="" font-pixelSize="20" font-bold="0" font-underline="0" font-alignment="1" strokeStyle="0" markerStart="0" markerEnd="0" shadowEnabled="0" shadowOffsetX="0" shadowOffsetY="2" shadowBlur="4" shadowOpacity="160" blurEnabled="0" blurRadius="4" transform="matrix(1,0,0,1,26.0337,129.301)" pers-center="0,0" pers-size="0,0" pers-start="0,0" pers-end="0,0" locked="0" mesh="" flag=""/>
            <path id="shapePath6" d="M22.6426,123.736 L22.7878,123.656 L29.4249,134.865 L29.2797,134.945 L22.6426,123.736 Z" style="stroke:#ffffff;stroke-opacity:1;stroke-width:0.493522;stroke-linejoin:round;stroke-miterlimit:2;stroke-linecap:round;fill:none;"/>
        </g>
        <g id="Shape7">
            <desc shapeID="7" type="0" basicInfo-basicType="0" basicInfo-roundedRectRadius="12" basicInfo-polygonSides="6" basicInfo-starPoints="5" bounding="rect(-6.54074,-6.89429,13.0815,13.7886)" text="" font-familyName="" font-pixelSize="20" font-bold="0" font-underline="0" font-alignment="1" strokeStyle="0" markerStart="0" markerEnd="0" shadowEnabled="0" shadowOffsetX="0" shadowOffsetY="2" shadowBlur="4" shadowOpacity="160" blurEnabled="0" blurRadius="4" transform="matrix(1,0,0,1,26.1372,129.326)" pers-center="0,0" pers-size="0,0" pers-start="0,0" pers-end="0,0" locked="0" mesh="" flag=""/>
            <path id="shapePath7" d="M32.678,129.326 C32.678,133.133 29.7496,136.22 26.1372,136.22 C22.5249,136.22 19.5965,133.133 19.5965,129.326 C19.5965,125.518 22.5249,122.432 26.1372,122.432 C29.7496,122.432 32.678,125.518 32.678,129.326 Z" style="stroke:#000000;stroke-opacity:1;stroke-width:0.2;stroke-linejoin:round;stroke-miterlimit:2;stroke-linecap:round;fill-rule:evenodd;fill:#47a3f5;fill-opacity:1;"/>
        </g>
        <g id="Shape8">
            <desc shapeID="8" type="2" basicInfo-basicType="0" basicInfo-roundedRectRadius="12" basicInfo-polygonSides="6" basicInfo-starPoints="5" bounding="rect(-63,-52,126,104)" text="365" font-familyName="Helvetica" font-pixelSize="20" font-bold="0" font-underline="0" font-alignment="1" strokeStyle="0" markerStart="0" markerEnd="0" shadowEnabled="0" shadowOffsetX="0" shadowOffsetY="2" shadowBlur="4" shadowOpacity="160" blurEnabled="0" blurRadius="4" transform="matrix(1,0,0,1,21.1939,157.096)" pers-center="0,0" pers-size="0,0" pers-start="0,0" pers-end="0,0" locked="0" mesh="" flag=""/>
            <path id="shapePath8" d="M6.13433,161.505 C5.38889,160.597 5.01617,159.492 5.01617,158.19 L6.85211,158.19 C6.93023,159.095 7.0995,159.752 7.35992,160.162 C7.81565,160.898 8.63922,161.266 9.83062,161.266 C10.7551,161.266 11.4973,161.018 12.0572,160.524 C12.6171,160.029 12.897,159.391 12.897,158.61 C12.897,157.646 12.6024,156.972 12.0132,156.588 C11.424,156.204 10.6054,156.012 9.55718,156.012 C9.44,156.012 9.32118,156.014 9.20074,156.017 C9.0803,156.02 8.95823,156.025 8.83453,156.032 L8.83453,154.479 C9.01682,154.498 9.16981,154.511 9.29351,154.518 C9.41721,154.524 9.55067,154.528 9.6939,154.528 C10.3515,154.528 10.8918,154.423 11.315,154.215 C12.0572,153.851 12.4283,153.199 12.4283,152.262 C12.4283,151.565 12.1809,151.028 11.6861,150.651 C11.1913,150.273 10.6151,150.084 9.95757,150.084 C8.7857,150.084 7.97515,150.475 7.52593,151.256 C7.27854,151.686 7.13856,152.298 7.10601,153.092 L5.36773,153.092 C5.36773,152.05 5.57606,151.165 5.99273,150.436 C6.70888,149.134 7.96864,148.483 9.77203,148.483 C11.1978,148.483 12.3013,148.8 13.0826,149.435 C13.8638,150.07 14.2544,150.989 14.2544,152.194 C14.2544,153.053 14.0233,153.75 13.5611,154.283 C13.2746,154.615 12.9035,154.876 12.4478,155.065 C13.1835,155.267 13.758,155.656 14.1714,156.232 C14.5849,156.808 14.7916,157.513 14.7916,158.346 C14.7916,159.681 14.3521,160.768 13.4732,161.608 C12.5943,162.448 11.3475,162.867 9.73297,162.867 C8.07932,162.867 6.87978,162.413 6.13433,161.505 M24.7632,149.659 C25.3785,150.47 25.6861,151.305 25.6861,152.164 L23.9478,152.164 C23.8436,151.611 23.6776,151.178 23.4498,150.865 C23.0266,150.28 22.3853,149.987 21.5259,149.987 C20.5429,149.987 19.7616,150.441 19.1822,151.349 C18.6028,152.257 18.2805,153.558 18.2154,155.25 C18.619,154.658 19.1268,154.215 19.7388,153.922 C20.2987,153.662 20.9237,153.532 21.6138,153.532 C22.7857,153.532 23.8078,153.906 24.6802,154.655 C25.5526,155.403 25.9888,156.52 25.9888,158.004 C25.9888,159.274 25.5754,160.398 24.7486,161.378 C23.9218,162.358 22.7434,162.848 21.2134,162.848 C19.9048,162.848 18.7753,162.352 17.8248,161.359 C16.8742,160.366 16.399,158.694 16.399,156.344 C16.399,154.606 16.6106,153.131 17.0337,151.92 C17.8475,149.602 19.3352,148.444 21.4966,148.444 C23.0591,148.444 24.148,148.849 24.7632,149.659 M23.4449,160.353 C23.9039,159.731 24.1334,158.997 24.1334,158.151 C24.1334,157.435 23.9283,156.753 23.5181,156.105 C23.108,155.457 22.3625,155.133 21.2818,155.133 C20.5266,155.133 19.8642,155.384 19.2945,155.885 C18.7248,156.386 18.44,157.142 18.44,158.151 C18.44,159.036 18.6988,159.78 19.2164,160.382 C19.7339,160.984 20.4517,161.285 21.3697,161.285 C22.2942,161.285 22.9859,160.975 23.4449,160.353 M29.2271,158.922 C29.3443,159.925 29.8098,160.618 30.6236,161.002 C31.0403,161.198 31.522,161.295 32.0689,161.295 C33.1106,161.295 33.8821,160.963 34.3834,160.299 C34.8847,159.635 35.1353,158.899 35.1353,158.092 C35.1353,157.115 34.8375,156.36 34.2418,155.826 C33.646,155.293 32.9315,155.026 32.0982,155.026 C31.4927,155.026 30.9735,155.143 30.5406,155.377 C30.1076,155.612 29.7382,155.937 29.4322,156.354 L27.9087,156.266 L28.9732,148.737 L36.2388,148.737 L36.2388,150.436 L30.2916,150.436 L29.6959,154.323 C30.0214,154.075 30.3306,153.89 30.6236,153.766 C31.1444,153.551 31.7466,153.444 32.4302,153.444 C33.7128,153.444 34.8,153.857 35.6919,154.684 C36.5839,155.511 37.0298,156.559 37.0298,157.828 C37.0298,159.15 36.6213,160.315 35.8043,161.324 C34.9872,162.334 33.6835,162.838 31.8931,162.838 C30.7538,162.838 29.7463,162.518 28.8707,161.876 C27.995,161.235 27.5051,160.25 27.4009,158.922 L29.2271,158.922 Z" style="stroke:none;fill-rule:nonzero;fill:#000000;fill-opacity:1;"/>
        </g>
        <g id="Shape9">
            <desc shapeID="9" type="2" basicInfo-basicType="0" basicInfo-roundedRectRadius="12" basicInfo-polygonSides="6" basicInfo-starPoints="5" bounding="rect(-61.3339,-42.8089,122.668,85.6179)" text="30%" font-familyName="Helvetica" font-pixelSize="39" font-bold="0" font-underline="0" font-alignment="1" strokeStyle="0" markerStart="0" markerEnd="0" shadowEnabled="0" shadowOffsetX="0" shadowOffsetY="2" shadowBlur="4" shadowOpacity="160" blurEnabled="0" blurRadius="4" transform="matrix(1,0,0,1,99.4772,90.2486)" pers-center="0,0" pers-size="0,0" pers-start="0,0" pers-end="0,0" locked="0" mesh="" flag=""/>
            <path id="shapePath9" d="M63.5751,98.5535 C62.1215,96.7825 61.3947,94.6275 61.3947,92.0884 L64.9748,92.0884 C65.1271,93.8531 65.4572,95.1353 65.965,95.9351 C66.8537,97.3697 68.4596,98.0869 70.7829,98.0869 C72.5856,98.0869 74.0329,97.6045 75.1247,96.6397 C76.2165,95.6748 76.7624,94.4307 76.7624,92.9073 C76.7624,91.0284 76.1879,89.7144 75.039,88.9654 C73.8901,88.2163 72.2936,87.8418 70.2497,87.8418 C70.0212,87.8418 69.7895,87.845 69.5546,87.8513 C69.3198,87.8577 69.0817,87.8672 68.8405,87.8799 L68.8405,84.8521 C69.196,84.8902 69.4943,84.9156 69.7355,84.9283 C69.9767,84.9409 70.237,84.9473 70.5163,84.9473 C71.7985,84.9473 72.8522,84.7442 73.6774,84.3379 C75.1247,83.627 75.8483,82.3575 75.8483,80.5293 C75.8483,79.1709 75.3659,78.1236 74.4011,77.3872 C73.4362,76.6509 72.3127,76.2827 71.0304,76.2827 C68.7453,76.2827 67.1647,77.0445 66.2887,78.5679 C65.8063,79.4058 65.5334,80.5992 65.4699,82.148 L62.0803,82.148 C62.0803,80.1167 62.4865,78.3902 63.299,76.9683 C64.6955,74.4292 67.152,73.1597 70.6686,73.1597 C73.4489,73.1597 75.6008,73.7786 77.1242,75.0164 C78.6476,76.2542 79.4094,78.0474 79.4094,80.396 C79.4094,82.0718 78.9587,83.4302 78.0573,84.4712 C77.4987,85.1187 76.7751,85.6265 75.8864,85.9947 C77.321,86.3882 78.4413,87.1468 79.2475,88.2703 C80.0536,89.3938 80.4567,90.7681 80.4567,92.3931 C80.4567,94.9956 79.5998,97.1158 77.8859,98.7534 C76.1721,100.391 73.7409,101.21 70.5925,101.21 C67.3679,101.21 65.0287,100.324 63.5751,98.5535 M100.354,77.5586 C101.573,79.8057 102.182,82.8843 102.182,86.7945 C102.182,90.5015 101.63,93.5674 100.526,95.9922 C98.926,99.4707 96.3107,101.21 92.6799,101.21 C89.4045,101.21 86.967,99.7881 85.3674,96.9444 C84.0344,94.5703 83.3679,91.3838 83.3679,87.3848 C83.3679,84.2871 83.7678,81.6275 84.5676,79.4058 C86.0656,75.2671 88.7761,73.1978 92.6989,73.1978 C96.2282,73.1978 98.78,74.6514 100.354,77.5586 M96.9074,95.7256 C97.9611,94.1514 98.488,91.2188 98.488,86.9278 C98.488,83.8301 98.1071,81.2815 97.3454,79.282 C96.5837,77.2825 95.1047,76.2827 92.9084,76.2827 C90.8898,76.2827 89.414,77.2317 88.4809,79.1297 C87.5478,81.0276 87.0812,83.8238 87.0812,87.5181 C87.0812,90.2984 87.3796,92.5327 87.9762,94.2212 C88.8903,96.7984 90.4518,98.0869 92.6608,98.0869 C94.4382,98.0869 95.8537,97.2998 96.9074,95.7256 M135.105,89.1558 C136.4,90.4507 137.048,92.0122 137.048,93.8404 C137.048,95.6685 136.4,97.23 135.105,98.5249 C133.81,99.8199 132.249,100.467 130.421,100.467 C128.58,100.467 127.012,99.8199 125.717,98.5249 C124.422,97.23 123.775,95.6685 123.775,93.8404 C123.775,92.0122 124.422,90.4507 125.717,89.1558 C127.012,87.8609 128.58,87.2134 130.421,87.2134 C132.249,87.2134 133.81,87.8609 135.105,89.1558 M127.659,73.312 L129.773,73.312 L114.52,101.191 L112.406,101.191 L127.659,73.312 M114.51,83.4334 C115.278,82.6653 115.662,81.7417 115.662,80.6626 C115.662,79.5835 115.278,78.6599 114.51,77.8919 C113.742,77.1238 112.812,76.7398 111.72,76.7398 C110.641,76.7398 109.718,77.1206 108.95,77.8824 C108.182,78.6441 107.798,79.5708 107.798,80.6626 C107.798,81.7417 108.182,82.6653 108.95,83.4334 C109.718,84.2014 110.641,84.5855 111.72,84.5855 C112.812,84.5855 113.742,84.2014 114.51,83.4334 M116.424,75.9685 C117.719,77.2698 118.366,78.8345 118.366,80.6626 C118.366,82.4908 117.719,84.0523 116.424,85.3472 C115.129,86.6421 113.561,87.2896 111.72,87.2896 C109.892,87.2896 108.331,86.6421 107.036,85.3472 C105.741,84.0523 105.093,82.4908 105.093,80.6626 C105.093,78.8345 105.741,77.2698 107.036,75.9685 C108.331,74.6673 109.892,74.0166 111.72,74.0166 C113.561,74.0166 115.129,74.6673 116.424,75.9685 M133.191,96.6111 C133.959,95.843 134.343,94.9195 134.343,93.8404 C134.343,92.7613 133.959,91.8377 133.191,91.0696 C132.423,90.3015 131.5,89.9175 130.421,89.9175 C129.329,89.9175 128.399,90.3015 127.631,91.0696 C126.863,91.8377 126.479,92.7613 126.479,93.8404 C126.479,94.9195 126.863,95.843 127.631,96.6111 C128.399,97.3792 129.329,97.7632 130.421,97.7632 C131.5,97.7632 132.423,97.3792 133.191,96.6111 Z" style="stroke:none;fill-rule:nonzero;fill:#000000;fill-opacity:1;"/>
        </g>
    </g>
</svg>
