<?xml version="1.0" encoding="UTF-8" standalone="no"?>
<!-- Created with Inkscape (http://www.inkscape.org/) -->

<svg
   xmlns:osb="http://www.openswatchbook.org/uri/2009/osb"
   xmlns:dc="http://purl.org/dc/elements/1.1/"
   xmlns:cc="http://creativecommons.org/ns#"
   xmlns:rdf="http://www.w3.org/1999/02/22-rdf-syntax-ns#"
   xmlns:svg="http://www.w3.org/2000/svg"
   xmlns="http://www.w3.org/2000/svg"
   xmlns:xlink="http://www.w3.org/1999/xlink"
   xmlns:sodipodi="http://sodipodi.sourceforge.net/DTD/sodipodi-0.dtd"
   xmlns:inkscape="http://www.inkscape.org/namespaces/inkscape"
   width="180"
   height="180"
   viewBox="0 0 180 180"
   id="svg2"
   version="1.1"
   inkscape:version="0.91 r"
   sodipodi:docname="partner3.svg">
  <defs
     id="defs4">
    <linearGradient
       inkscape:collect="always"
       id="linearGradient4219">
      <stop
         style="stop-color:#47a3f5;stop-opacity:1;"
         offset="0"
         id="stop4221" />
      <stop
         style="stop-color:#47a3f5;stop-opacity:0;"
         offset="1"
         id="stop4223" />
    </linearGradient>
    <linearGradient
       id="linearGradient5639"
       osb:paint="solid">
      <stop
         style="stop-color:#47a3f5;stop-opacity:1;"
         offset="0"
         id="stop5641" />
    </linearGradient>
    <linearGradient
       inkscape:collect="always"
       xlink:href="#linearGradient4219"
       id="linearGradient4227"
       x1="301.48489"
       y1="896.57367"
       x2="282.33145"
       y2="1098.0457"
       gradientUnits="userSpaceOnUse" />
  </defs>
  <sodipodi:namedview
     id="base"
     pagecolor="#ffffff"
     bordercolor="#666666"
     borderopacity="1.0"
     inkscape:pageopacity="0.0"
     inkscape:pageshadow="2"
     inkscape:zoom="1"
     inkscape:cx="44.891444"
     inkscape:cy="191.20036"
     inkscape:document-units="px"
     inkscape:current-layer="layer1"
     showgrid="false"
     inkscape:window-width="1920"
     inkscape:window-height="1028"
     inkscape:window-x="0"
     inkscape:window-y="0"
     inkscape:window-maximized="1"
     units="px" />
  <metadata
     id="metadata7">
    <rdf:RDF>
      <cc:Work
         rdf:about="">
        <dc:format>image/svg+xml</dc:format>
        <dc:type
           rdf:resource="http://purl.org/dc/dcmitype/StillImage" />
        <dc:title />
      </cc:Work>
    </rdf:RDF>
  </metadata>
  <g
     inkscape:label="Layer 1"
     inkscape:groupmode="layer"
     id="layer1"
     transform="translate(0,-872.36216)">
    <text
       xml:space="preserve"
       style="font-style:normal;font-weight:normal;font-size:40px;line-height:125%;font-family:sans-serif;letter-spacing:0px;word-spacing:0px;fill:#000000;fill-opacity:1;stroke:none;stroke-width:1px;stroke-linecap:butt;stroke-linejoin:miter;stroke-opacity:1"
       x="-97.22718"
       y="952.6601"
       id="text4331"
       sodipodi:linespacing="125%"><tspan
         sodipodi:role="line"
         id="tspan4333"
         x="-97.22718"
         y="952.6601" /></text>
    <flowRoot
       xml:space="preserve"
       id="flowRoot4343"
       style="fill:black;stroke:none;stroke-opacity:1;stroke-width:1px;stroke-linejoin:miter;stroke-linecap:butt;fill-opacity:1;font-family:sans-serif;font-style:normal;font-weight:normal;font-size:40px;line-height:125%;letter-spacing:0px;word-spacing:0px"><flowRegion
         id="flowRegion4345"><rect
           id="rect4347"
           width="89.095451"
           height="46.669048"
           x="-116.31907"
           y="-37.788887" /></flowRegion><flowPara
         id="flowPara4349" /></flowRoot>    <flowRoot
       xml:space="preserve"
       id="flowRoot4355"
       style="fill:black;stroke:none;stroke-opacity:1;stroke-width:1px;stroke-linejoin:miter;stroke-linecap:butt;fill-opacity:1;font-family:sans-serif;font-style:normal;font-weight:normal;font-size:40px;line-height:125%;letter-spacing:0px;word-spacing:0px"><flowRegion
         id="flowRegion4357"><rect
           id="rect4359"
           width="66.46804"
           height="63.63961"
           x="-103.23759"
           y="83.126373" /></flowRegion><flowPara
         id="flowPara4361" /></flowRoot>    <rect
       style="opacity:1;fill:url(#linearGradient4227);fill-opacity:1;fill-rule:nonzero;stroke:#000000;stroke-width:0.5;stroke-linecap:round;stroke-linejoin:round;stroke-miterlimit:4;stroke-dasharray:none;stroke-opacity:1"
       id="rect4156"
       width="148.49243"
       height="100.76272"
       x="224.65889"
       y="891.06201"
       transform="matrix(0.9759796,0.21786195,-0.21786195,0.9759796,0,0)" />
    <path
       style="fill:none;fill-rule:evenodd;stroke:#000000;stroke-width:0.5;stroke-linecap:butt;stroke-linejoin:miter;stroke-opacity:1;stroke-miterlimit:4;stroke-dasharray:none"
       d="M 25.058097,918.49801 148.00629,1049.2244 Z"
       id="path4175"
       inkscape:connector-curvature="0" />
    <path
       style="fill:none;fill-rule:evenodd;stroke:#000000;stroke-width:0.5;stroke-linecap:butt;stroke-linejoin:miter;stroke-opacity:1;stroke-miterlimit:4;stroke-dasharray:none"
       d="M 3.234375,1016.909 170,950.99497 Z"
       id="path4177"
       inkscape:connector-curvature="0" />
    <path
       style="fill:#47a3f5;fill-opacity:1;fill-rule:evenodd;stroke:#000000;stroke-width:0.49751857;stroke-linecap:butt;stroke-linejoin:miter;stroke-miterlimit:4;stroke-dasharray:none;stroke-opacity:1"
       d="m 25.75316,918.7745 143.71024,32.25264 0.43899,-0.28335 -61.39428,-64.86871 -83.090418,32.56346 z"
       id="path4200"
       inkscape:connector-curvature="0"
       sodipodi:nodetypes="cccccc" />
    <path
       style="fill:#ffffff;fill-opacity:1;fill-rule:evenodd;stroke:#000000;stroke-width:0.5;stroke-linecap:butt;stroke-linejoin:miter;stroke-miterlimit:4;stroke-dasharray:none;stroke-opacity:1"
       d="m 50.44765,876.14894 -10.796855,57.79603 c 30.963145,32.77236 29.500209,31.4159 46.991339,50.00547 56.052036,-22.24482 12.888411,-5.10656 66.777926,-26.47473 l 10.15362,-55.02018 z"
       id="path4217"
       inkscape:connector-curvature="0"
       sodipodi:nodetypes="cccccc" />
    <path
       id="path5667"
       style="fill:#47a3f5;fill-opacity:1;fill-rule:nonzero;stroke:#000000;stroke-width:0.87207705;stroke-opacity:1"
       d="m 124.56833,959.04519 c -0.9897,-1.13608 -1.71327,-2.84104 -2.1158,-4.98545 -0.94788,-5.04939 0.42513,-9.90574 3.55728,-12.58228 2.72749,-2.33072 6.85272,-3.04425 11.83347,-2.04684 1.11941,0.22416 3.7758,0.97493 4.84479,1.36925 l 0.50818,0.18747 -3.42384,5.0222 c -1.88311,2.76222 -3.43542,5.02657 -3.44955,5.03189 -0.0141,0.006 -0.36334,-0.32649 -0.77597,-0.73741 -3.10068,-3.08767 -6.76713,-4.569 -8.45029,-3.41404 -0.45238,0.31039 -0.85244,1.08566 -0.91314,1.76945 -0.10822,1.21928 0.71935,3.51151 2.0127,5.57482 0.66755,1.06499 2.30693,3.35848 2.46184,3.44416 0.12008,0.0665 0.0289,0.23024 -0.43138,0.7743 -1.05078,1.2424 -2.2647,1.92725 -3.31363,1.86948 -0.71612,-0.0394 -1.76356,-0.60992 -2.34477,-1.27687 z m -9.35938,-2.99769 c 0.58285,-5.96162 1.57385,-16.10672 2.20226,-22.54473 0.6284,-6.438 1.17247,-11.71892 1.20901,-11.73536 0.0365,-0.0164 0.82663,1.64322 1.75572,3.68815 l 1.68924,3.71801 -1.63442,17.87009 c -0.89893,9.82854 -1.64154,17.90214 -1.65019,17.94122 -0.009,0.0388 -1.05423,0.48296 -2.32352,0.9864 l -2.30778,0.91543 1.05968,-10.83921 z m -8.22954,11.68171 c 0.0379,-4.28081 1.24033,-18.94699 3.75115,-45.75506 0.75674,-8.07964 1.40773,-14.70461 1.4467,-14.72213 0.039,-0.0175 1.00102,2.29535 2.13795,5.13968 l 2.06715,5.17148 -0.32572,3.74858 c -1.3564,15.61163 -3.65881,40.26333 -4.10276,43.92859 l -0.21276,1.75635 -0.6518,0.26419 c -0.48041,0.19464 -3.9573,0.86508 -4.09415,0.78939 -0.01,-0.006 -0.0172,-0.15011 -0.0157,-0.32107 z m -12.31954,-7.2905 c -0.263813,-3.88287 2.602264,-21.64607 0.830667,-22.97033 -4.522662,-2.78461 -8.107658,-6.74147 -12.283691,-9.15842 -0.364967,0.28124 -0.748907,0.5293 -1.124738,0.76606 -6.696667,3.81598 -13.525229,9.64095 -19.633506,13.1478 -2.601338,-0.97373 -5.936733,-2.54259 -8.959139,-4.8923 -0.0097,-0.0513 1.815972,-1.6652 4.057243,-3.58621 13.752883,-11.56877 28.464216,-24.30958 41.1232,-34.91795 3.256044,1.77701 6.733154,3.25719 9.763784,5.45014 0.42071,6.27882 -0.4921,12.63597 -0.92991,18.63035 -0.83124,12.93313 -2.06759,25.82481 -2.73746,37.24633 -0.002,0.83176 -0.46795,5.88138 -0.54566,5.91634 -0.0536,0.024 -2.2298,-1.11552 -4.835745,-2.53271 l -4.737934,-2.577 0.01314,-0.52258 z m 9.35355,-49.60414 c -1.98161,-0.27082 -6.448008,-1.60758 -7.737409,-1.00485 -3.546801,4.67647 -6.330235,7.92287 -9.618564,12.2017 3.158727,3.66791 6.00623,7.63635 9.633478,11.0421 l 0.303557,0.14252 c 2.404512,-7.49422 5.187968,-15.90681 7.418908,-22.38142 z"
       inkscape:connector-curvature="0" />
  </g>
</svg>
