<?xml version="1.0" encoding="UTF-8" standalone="no"?>
<!-- Created with Inkscape (http://www.inkscape.org/) -->

<svg
   xmlns:osb="http://www.openswatchbook.org/uri/2009/osb"
   xmlns:dc="http://purl.org/dc/elements/1.1/"
   xmlns:cc="http://creativecommons.org/ns#"
   xmlns:rdf="http://www.w3.org/1999/02/22-rdf-syntax-ns#"
   xmlns:svg="http://www.w3.org/2000/svg"
   xmlns="http://www.w3.org/2000/svg"
   xmlns:sodipodi="http://sodipodi.sourceforge.net/DTD/sodipodi-0.dtd"
   xmlns:inkscape="http://www.inkscape.org/namespaces/inkscape"
   width="180"
   height="180"
   viewBox="0 0 180 180"
   id="svg2"
   version="1.1"
   inkscape:version="0.91 r"
   sodipodi:docname="partner1.svg">
  <defs
     id="defs4">
    <linearGradient
       id="linearGradient5639"
       osb:paint="solid">
      <stop
         style="stop-color:#47a3f5;stop-opacity:1;"
         offset="0"
         id="stop5641" />
    </linearGradient>
  </defs>
  <sodipodi:namedview
     id="base"
     pagecolor="#ffffff"
     bordercolor="#666666"
     borderopacity="1.0"
     inkscape:pageopacity="0.0"
     inkscape:pageshadow="2"
     inkscape:zoom="2"
     inkscape:cx="-19.64364"
     inkscape:cy="97.607411"
     inkscape:document-units="px"
     inkscape:current-layer="layer1"
     showgrid="false"
     inkscape:window-width="1920"
     inkscape:window-height="1028"
     inkscape:window-x="0"
     inkscape:window-y="0"
     inkscape:window-maximized="1"
     units="px" />
  <metadata
     id="metadata7">
    <rdf:RDF>
      <cc:Work
         rdf:about="">
        <dc:format>image/svg+xml</dc:format>
        <dc:type
           rdf:resource="http://purl.org/dc/dcmitype/StillImage" />
        <dc:title />
      </cc:Work>
    </rdf:RDF>
  </metadata>
  <g
     inkscape:label="Layer 1"
     inkscape:groupmode="layer"
     id="layer1"
     transform="translate(0,-872.36216)">
    <path
       id="path5667"
       style="fill:#47a3f5;fill-opacity:1;fill-rule:nonzero;stroke:#000000;stroke-width:1.064;stroke-opacity:1;stroke-miterlimit:4;stroke-dasharray:none"
       d="m 162.13502,971.29297 c -2.20147,-0.79881 -4.43032,-2.56929 -6.51743,-5.177 -4.91446,-6.1403 -6.4169,-13.76052 -3.8927,-19.74314 2.19809,-5.20966 7.5143,-9.27394 15.24982,-11.65867 1.73853,-0.53595 6.01911,-1.51089 7.80704,-1.77811 l 0.84995,-0.12702 -1.27426,9.38446 c -0.70085,5.16144 -1.2875,9.39907 -1.30368,9.4169 -0.0161,0.0181 -0.74403,-0.17033 -1.61743,-0.41823 -6.56298,-1.86268 -12.7865,-1.12098 -14.34371,1.70944 -0.41852,0.76071 -0.43394,2.11295 -0.0352,3.08638 0.71098,1.73568 3.50261,4.22498 6.78939,6.05408 1.6965,0.94412 5.63465,2.82587 5.91396,2.82587 0.21651,0 0.20378,0.29077 -0.0603,1.37442 -0.60281,2.47448 -1.8308,4.31484 -3.352,5.02371 -1.03855,0.48393 -2.92083,0.49595 -4.21351,0.0272 z m -15.33171,2.95669 c -3.40047,-8.52697 -9.18839,-23.03697 -12.86204,-32.24456 -3.67363,-9.20759 -6.64666,-16.78178 -6.60672,-16.8315 0.0399,-0.0496 2.33055,1.60933 5.09025,3.68687 l 5.01765,3.77729 10.35202,25.47521 c 5.69362,14.01135 10.36468,25.52405 10.38016,25.58355 0.0156,0.0591 -1.14565,1.44658 -2.58028,3.08233 l -2.60835,2.97421 -6.18269,-15.5034 z m -3.33882,22.02769 c -2.97883,-5.83719 -11.67103,-26.64067 -27.11761,-64.90191 -4.65543,-11.53148 -8.42962,-21.00971 -8.38706,-21.06272 0.0426,-0.053 3.03863,2.36335 6.65792,5.36963 l 6.58053,5.46593 2.19571,5.33103 c 9.14455,22.20198 23.35777,57.38073 25.3276,62.68744 l 0.94388,2.54294 -0.7327,0.84767 c -0.5401,0.6247 -4.97186,4.14389 -5.2186,4.14389 -0.0184,0 -0.13071,-0.1908 -0.24967,-0.4239 z m -22.55005,-0.6467 c -3.1228,-5.07076 -11.66096,-31.32531 -15.09914,-31.79262 -8.355035,-0.38421 -16.217196,-3.0628 -23.822618,-3.20825 -0.315833,0.65552 -0.681945,1.28028 -1.044627,1.88363 -6.747414,10.20399 -12.257865,23.23307 -18.393918,32.57604 -4.360819,0.631 -10.179169,1.0055 -16.108921,0.086 -0.05022,-0.062 1.383164,-3.62246 3.185328,-7.91125 11.213546,-26.01985 22.949447,-54.34944 33.299567,-78.2451 5.853809,-0.0324 11.809329,-0.63354 17.639639,0.0676 5.0414,8.2042 8.25644,17.51552 11.88479,25.9781 7.98835,18.17325 15.37559,36.59434 22.52085,52.59534 0.58602,1.13035 3.5058,8.33181 3.42092,8.43761 -0.0587,0.073 -3.93697,0.1598 -8.61845,0.1926 l -8.51177,0.059 -0.35165,-0.7189 z M 98.976551,921.30111 c -2.988352,1.11974 -10.238374,2.65794 -11.631053,4.44355 -1.692723,9.00758 -3.321148,15.50174 -4.930725,23.77582 7.05591,2.60642 13.885478,5.85423 21.416877,7.7533 l 0.52935,-0.0344 c -1.91532,-11.97381 -3.94645,-25.47818 -5.384449,-35.93814 z"
       inkscape:connector-curvature="0" />
    <text
       xml:space="preserve"
       style="font-style:normal;font-weight:normal;font-size:40px;line-height:125%;font-family:sans-serif;letter-spacing:0px;word-spacing:0px;fill:#000000;fill-opacity:1;stroke:none;stroke-width:1px;stroke-linecap:butt;stroke-linejoin:miter;stroke-opacity:1"
       x="-97.22718"
       y="952.6601"
       id="text4331"
       sodipodi:linespacing="125%"><tspan
         sodipodi:role="line"
         id="tspan4333"
         x="-97.22718"
         y="952.6601" /></text>
    <flowRoot
       xml:space="preserve"
       id="flowRoot4343"
       style="fill:black;stroke:none;stroke-opacity:1;stroke-width:1px;stroke-linejoin:miter;stroke-linecap:butt;fill-opacity:1;font-family:sans-serif;font-style:normal;font-weight:normal;font-size:40px;line-height:125%;letter-spacing:0px;word-spacing:0px"><flowRegion
         id="flowRegion4345"><rect
           id="rect4347"
           width="89.095451"
           height="46.669048"
           x="-116.31907"
           y="-37.788887" /></flowRegion><flowPara
         id="flowPara4349" /></flowRoot>    <flowRoot
       xml:space="preserve"
       id="flowRoot4355"
       style="fill:black;stroke:none;stroke-opacity:1;stroke-width:1px;stroke-linejoin:miter;stroke-linecap:butt;fill-opacity:1;font-family:sans-serif;font-style:normal;font-weight:normal;font-size:40px;line-height:125%;letter-spacing:0px;word-spacing:0px"><flowRegion
         id="flowRegion4357"><rect
           id="rect4359"
           width="66.46804"
           height="63.63961"
           x="-103.23759"
           y="83.126373" /></flowRegion><flowPara
         id="flowPara4361" /></flowRoot>    <path
       style="fill:#47a3f5;fill-opacity:1;fill-rule:evenodd;stroke:#000000;stroke-width:1px;stroke-linecap:butt;stroke-linejoin:round;stroke-opacity:1"
       d="m 123.27162,1022.656 c 4.10547,6.1405 7.95674,14.6652 20.63895,15.0182 12.50554,0.1028 16.84573,-9.9152 15.85044,-20.9471 -3.00145,-10.3264 -8.27143,-11.7 -12.92016,-13.5939 -12.9979,-1.3955 -18.10487,5.6496 -23.85665,10.387 l -78.597705,0.2147 c -2.060553,-0.1729 -1.261892,0.3261 -0.214882,1.29 6.079947,5.5699 10.999037,9.4589 14.643436,12.7882 1.774958,1.8312 1.830339,2.0057 3.691688,0.2207 l 8.289154,-7.9489 6.904127,8.8346 c 1.526822,2.2993 1.573864,1.7985 3.34559,-0.015 l 7.493949,-7.6718 7.610183,7.7927 c 1.525372,1.8295 1.55405,1.4696 3.097807,-0.1094 l 6.306043,-6.4498 z"
       id="path4156"
       inkscape:connector-curvature="0"
       sodipodi:nodetypes="ccccccccccccccccc" />
    <ellipse
       style="opacity:1;fill:#ffffff;fill-opacity:1;fill-rule:nonzero;stroke:#000000;stroke-width:1;stroke-linecap:round;stroke-linejoin:round;stroke-miterlimit:4;stroke-dasharray:none;stroke-opacity:1"
       id="path4158"
       cx="146.16295"
       cy="1014.9453"
       rx="4.2426405"
       ry="4.4194174" />
    <path
       style="fill:#47a3f5;fill-opacity:1;fill-rule:evenodd;stroke:#000000;stroke-width:0.5;stroke-linecap:butt;stroke-linejoin:miter;stroke-opacity:1;stroke-miterlimit:4;stroke-dasharray:none"
       d="m 146.99316,875.87587 0.5,17 -17.5,0 0,12 17.5,-0.5 c 0.36727,-0.073 -0.29832,14.7597 0.5,15 1.9151,0.5765 12.5,-0.5 12.5,-0.5 l -0.5,-14 17.05162,-0.91406 c 0.0114,1.00936 0.42776,-11.02624 -0.15149,-11.33074 -0.89885,-0.47251 -18.18915,1.0934 -18.31954,0.311 l -0.20191,-17.6214 z"
       id="path4177"
       inkscape:connector-curvature="0"
       sodipodi:nodetypes="cccccscccsccc" />
    <path
       style="fill:#47a3f5;fill-opacity:1;fill-rule:evenodd;stroke:#000000;stroke-width:0.5;stroke-linecap:butt;stroke-linejoin:miter;stroke-opacity:1;stroke-miterlimit:4;stroke-dasharray:none"
       d="m 23.309763,911.28923 0.5,16.99997 -17.4999999,0 0,12 17.4999999,-0.5 c 0.36727,-0.073 -0.29832,14.7597 0.5,15 1.9151,0.5765 12.5,-0.5 12.5,-0.5 l -0.5,-14 16.968367,-0.8529 c 0.13822,1.1304 0.46682,-11.0653 -0.11243,-11.3698 -0.89886,-0.4725 -18.144957,1.0713 -18.275347,0.2889 l -0.20191,-17.62137 z"
       id="path4177-5"
       inkscape:connector-curvature="0"
       sodipodi:nodetypes="cccccscccsccc" />
  </g>
</svg>
