<?xml version="1.0" encoding="UTF-8" standalone="no"?>
<!-- Created with Inkscape (http://www.inkscape.org/) -->

<svg
   xmlns:osb="http://www.openswatchbook.org/uri/2009/osb"
   xmlns:dc="http://purl.org/dc/elements/1.1/"
   xmlns:cc="http://creativecommons.org/ns#"
   xmlns:rdf="http://www.w3.org/1999/02/22-rdf-syntax-ns#"
   xmlns:svg="http://www.w3.org/2000/svg"
   xmlns="http://www.w3.org/2000/svg"
   xmlns:sodipodi="http://sodipodi.sourceforge.net/DTD/sodipodi-0.dtd"
   xmlns:inkscape="http://www.inkscape.org/namespaces/inkscape"
   width="180"
   height="180"
   viewBox="0 0 180 180"
   id="svg2"
   version="1.1"
   inkscape:version="0.91 r"
   sodipodi:docname="partner2.svg">
  <defs
     id="defs4">
    <linearGradient
       id="linearGradient5639"
       osb:paint="solid">
      <stop
         style="stop-color:#47a3f5;stop-opacity:1;"
         offset="0"
         id="stop5641" />
    </linearGradient>
  </defs>
  <sodipodi:namedview
     id="base"
     pagecolor="#ffffff"
     bordercolor="#666666"
     borderopacity="1.0"
     inkscape:pageopacity="0.0"
     inkscape:pageshadow="2"
     inkscape:zoom="2"
     inkscape:cx="-17.607372"
     inkscape:cy="80.962642"
     inkscape:document-units="px"
     inkscape:current-layer="layer1"
     showgrid="false"
     inkscape:window-width="1920"
     inkscape:window-height="1028"
     inkscape:window-x="0"
     inkscape:window-y="0"
     inkscape:window-maximized="1"
     units="px" />
  <metadata
     id="metadata7">
    <rdf:RDF>
      <cc:Work
         rdf:about="">
        <dc:format>image/svg+xml</dc:format>
        <dc:type
           rdf:resource="http://purl.org/dc/dcmitype/StillImage" />
        <dc:title />
      </cc:Work>
    </rdf:RDF>
  </metadata>
  <g
     inkscape:label="Layer 1"
     inkscape:groupmode="layer"
     id="layer1"
     transform="translate(0,-872.36216)">
    <path
       id="path5667"
       style="fill:#47a3f5;fill-opacity:1;fill-rule:nonzero;stroke:#000000;stroke-width:0.28764215;stroke-opacity:1"
       d="m 173.81542,889.81233 c -0.45596,-0.17149 -0.91759,-0.55161 -1.34987,-1.11146 -1.01788,-1.31827 -1.32906,-2.95427 -0.80626,-4.23869 0.45527,-1.11849 1.55636,-1.99105 3.15852,-2.50304 0.36009,-0.11505 1.24667,-0.32437 1.61698,-0.38175 l 0.17604,-0.0273 -0.26392,2.01476 c -0.14516,1.10812 -0.26667,2.01792 -0.27001,2.02174 -0.004,0.004 -0.15411,-0.0365 -0.33501,-0.0898 -1.35931,-0.3999 -2.64831,-0.24067 -2.97083,0.367 -0.0867,0.16332 -0.0899,0.45363 -0.007,0.66262 0.14725,0.37264 0.72545,0.90707 1.40621,1.29977 0.35137,0.20269 1.16704,0.60669 1.22488,0.60669 0.0448,0 0.0422,0.0624 -0.0125,0.29508 -0.12485,0.53124 -0.37919,0.92635 -0.69425,1.07854 -0.21512,0.1039 -0.60497,0.10648 -0.8727,0.005 z m -3.17547,0.63478 c -0.70431,-1.83067 -1.90308,-4.94586 -2.66396,-6.92266 -0.76087,-1.9768 -1.37664,-3.60291 -1.36838,-3.61359 0.008,-0.0106 0.4827,0.34551 1.05428,0.79154 l 1.03926,0.81096 2.14409,5.46932 c 1.17925,3.00814 2.14671,5.47982 2.14991,5.4926 0.004,0.0127 -0.23728,0.31057 -0.53442,0.66176 l -0.54024,0.63853 -1.28054,-3.32846 z m -0.69153,4.72919 c -0.61697,-1.25321 -2.41729,-5.71956 -5.61655,-13.93395 -0.96423,-2.47571 -1.74592,-4.51061 -1.73711,-4.52201 0.008,-0.0113 0.62936,0.5074 1.37897,1.15282 l 1.36295,1.1735 0.45477,1.14453 c 1.894,4.76659 4.83782,12.31919 5.24581,13.4585 l 0.19549,0.54597 -0.15176,0.18197 c -0.11186,0.13412 -1.02975,0.88967 -1.08086,0.88967 -0.004,0 -0.0271,-0.0409 -0.0517,-0.091 z m -4.67052,-0.13884 c -0.64679,-1.08868 -2.41521,-6.72533 -3.12731,-6.82565 -1.73049,-0.0825 -3.35888,-0.65755 -4.9341,-0.68878 -0.0654,0.14074 -0.14125,0.27487 -0.21636,0.4044 -1.39752,2.19071 -2.53882,4.98797 -3.80972,6.99381 -0.9032,0.13549 -2.10829,0.21588 -3.33645,0.0182 -0.0104,-0.0134 0.28648,-0.77774 0.65975,-1.6985 2.32252,-5.58625 4.75324,-11.66839 6.89694,-16.79861 1.21242,-0.006 2.44593,-0.13601 3.65349,0.0145 1.04417,1.76138 1.71006,3.76045 2.46156,5.5773 1.65453,3.90166 3.18455,7.85652 4.66446,11.2918 0.12139,0.2427 0.72614,1.7888 0.70854,1.81151 -0.0121,0.0158 -0.81542,0.0343 -1.78503,0.0414 l -1.76295,0.0126 -0.0728,-0.15435 z m -4.54374,-15.958 c -0.61894,0.24041 -2.12055,0.57066 -2.40901,0.954 -0.35059,1.93387 -0.68786,3.3281 -1.02124,5.10449 1.46141,0.55957 2.87594,1.25685 4.43582,1.66458 l 0.10965,-0.007 c -0.3967,-2.57068 -0.81738,-5.46996 -1.11522,-7.71563 z"
       inkscape:connector-curvature="0" />
    <text
       xml:space="preserve"
       style="font-style:normal;font-weight:normal;font-size:40px;line-height:125%;font-family:sans-serif;letter-spacing:0px;word-spacing:0px;fill:#000000;fill-opacity:1;stroke:none;stroke-width:1px;stroke-linecap:butt;stroke-linejoin:miter;stroke-opacity:1"
       x="-97.22718"
       y="952.6601"
       id="text4331"
       sodipodi:linespacing="125%"><tspan
         sodipodi:role="line"
         id="tspan4333"
         x="-97.22718"
         y="952.6601" /></text>
    <flowRoot
       xml:space="preserve"
       id="flowRoot4343"
       style="fill:black;stroke:none;stroke-opacity:1;stroke-width:1px;stroke-linejoin:miter;stroke-linecap:butt;fill-opacity:1;font-family:sans-serif;font-style:normal;font-weight:normal;font-size:40px;line-height:125%;letter-spacing:0px;word-spacing:0px"><flowRegion
         id="flowRegion4345"><rect
           id="rect4347"
           width="89.095451"
           height="46.669048"
           x="-116.31907"
           y="-37.788887" /></flowRegion><flowPara
         id="flowPara4349" /></flowRoot>    <flowRoot
       xml:space="preserve"
       id="flowRoot4355"
       style="fill:black;stroke:none;stroke-opacity:1;stroke-width:1px;stroke-linejoin:miter;stroke-linecap:butt;fill-opacity:1;font-family:sans-serif;font-style:normal;font-weight:normal;font-size:40px;line-height:125%;letter-spacing:0px;word-spacing:0px"><flowRegion
         id="flowRegion4357"><rect
           id="rect4359"
           width="66.46804"
           height="63.63961"
           x="-103.23759"
           y="83.126373" /></flowRegion><flowPara
         id="flowPara4361" /></flowRoot>    <ellipse
       style="opacity:1;fill:#47a3f5;fill-opacity:1;fill-rule:nonzero;stroke:#000000;stroke-width:0.631;stroke-linecap:round;stroke-linejoin:round;stroke-miterlimit:4;stroke-dasharray:none;stroke-opacity:1"
       id="path4156"
       cx="97.045197"
       cy="959.547"
       rx="53.420841"
       ry="51.544312" />
    <ellipse
       style="opacity:1;fill:none;fill-opacity:1;fill-rule:nonzero;stroke:#000000;stroke-width:0.2;stroke-linecap:round;stroke-linejoin:round;stroke-miterlimit:4;stroke-dasharray:none;stroke-opacity:1"
       id="path4158"
       cx="95.989746"
       cy="961.14539"
       rx="80.931747"
       ry="81.108521" />
    <rect
       style="opacity:1;fill:none;fill-opacity:1;fill-rule:nonzero;stroke:#ffffff;stroke-width:0.49352199;stroke-linecap:round;stroke-linejoin:round;stroke-miterlimit:4;stroke-dasharray:none;stroke-opacity:1"
       id="rect4189"
       width="0.16576464"
       height="13.026006"
       x="-488.29413"
       y="883.83136"
       transform="matrix(0.87589542,-0.482501,0.50952837,0.86045386,0,0)" />
    <ellipse
       style="opacity:1;fill:#47a3f5;fill-opacity:1;fill-rule:nonzero;stroke:#000000;stroke-width:0.2;stroke-linecap:round;stroke-linejoin:round;stroke-miterlimit:4;stroke-dasharray:none;stroke-opacity:1"
       id="path4160"
       cx="26.137247"
       cy="1001.688"
       rx="6.5407376"
       ry="6.8942909" />
    <text
       xml:space="preserve"
       style="font-style:normal;font-weight:normal;font-size:41.31839371px;line-height:125%;font-family:sans-serif;letter-spacing:0px;word-spacing:0px;fill:#000000;fill-opacity:1;stroke:none;stroke-width:1px;stroke-linecap:butt;stroke-linejoin:miter;stroke-opacity:1"
       x="54.240704"
       y="943.43994"
       id="text4162"
       sodipodi:linespacing="125%"
       transform="scale(0.96796707,1.033093)"><tspan
         sodipodi:role="line"
         id="tspan4164"
         x="54.240704"
         y="943.43994">25%</tspan></text>
    <text
       xml:space="preserve"
       style="font-style:normal;font-weight:normal;font-size:21.1180706px;line-height:125%;font-family:sans-serif;letter-spacing:0px;word-spacing:0px;fill:#000000;fill-opacity:1;stroke:none;stroke-width:1px;stroke-linecap:butt;stroke-linejoin:miter;stroke-opacity:1"
       x="2.7165616"
       y="987.56189"
       id="text4166"
       sodipodi:linespacing="125%"
       transform="scale(0.94968315,1.0529828)"><tspan
         sodipodi:role="line"
         id="tspan4168"
         x="2.7165616"
         y="987.56189">365</tspan></text>
  </g>
</svg>
