<?xml version="1.0"?>
<svg version="1.1" xmlns="http://www.w3.org/2000/svg" xmlns:xlink="http://www.w3.org/1999/xlink" width="180" height="180">
    <desc iVinci="yes" version="4.6" gridStep="20" showGrid="no" snapToGrid="no" codePlatform="0"/>
    <g id="Layer1" name="Layer 1" opacity="1">
        <g id="Shape1">
            <desc shapeID="1" type="0" basicInfo-basicType="0" basicInfo-roundedRectRadius="12" basicInfo-polygonSides="6" basicInfo-starPoints="5" bounding="rect(-44.5477,-23.3345,89.0955,46.6691)" text="" font-familyName="" font-pixelSize="20" font-bold="0" font-underline="0" font-alignment="1" strokeStyle="0" markerStart="0" markerEnd="0" shadowEnabled="0" shadowOffsetX="0" shadowOffsetY="2" shadowBlur="4" shadowOpacity="160" blurEnabled="0" blurRadius="4" transform="matrix(1,0,0,1,-71.7713,-886.817)" pers-center="0,0" pers-size="0,0" pers-start="0,0" pers-end="0,0" locked="0" mesh="" flag=""/>
            <path id="shapePath1" d="M-116.319,-910.151 L-27.2236,-910.151 L-27.2236,-863.482 L-116.319,-863.482 L-116.319,-910.151 Z" style="stroke:none;fill-rule:evenodd;fill:#000000;fill-opacity:1;"/>
        </g>
        <g id="Shape2">
            <desc shapeID="2" type="0" basicInfo-basicType="0" basicInfo-roundedRectRadius="12" basicInfo-polygonSides="6" basicInfo-starPoints="5" bounding="rect(-33.234,-31.8198,66.468,63.6396)" text="" font-familyName="" font-pixelSize="20" font-bold="0" font-underline="0" font-alignment="1" strokeStyle="0" markerStart="0" markerEnd="0" shadowEnabled="0" shadowOffsetX="0" shadowOffsetY="2" shadowBlur="4" shadowOpacity="160" blurEnabled="0" blurRadius="4" transform="matrix(1,0,0,1,-70.0036,-757.416)" pers-center="0,0" pers-size="0,0" pers-start="0,0" pers-end="0,0" locked="0" mesh="" flag=""/>
            <path id="shapePath2" d="M-103.238,-789.236 L-36.7696,-789.236 L-36.7696,-725.596 L-103.238,-725.596 L-103.238,-789.236 Z" style="stroke:none;fill-rule:evenodd;fill:#000000;fill-opacity:1;"/>
        </g>
        <g id="Shape3">
            <desc shapeID="3" type="0" basicInfo-basicType="0" basicInfo-roundedRectRadius="12" basicInfo-polygonSides="6" basicInfo-starPoints="5" bounding="rect(-15.9783,-13.1884,31.9565,26.3768)" text="" font-familyName="" font-pixelSize="20" font-bold="0" font-underline="0" font-alignment="1" strokeStyle="0" markerStart="0" markerEnd="0" shadowEnabled="0" shadowOffsetX="0" shadowOffsetY="2" shadowBlur="4" shadowOpacity="160" blurEnabled="0" blurRadius="4" transform="matrix(1,0,0,1,20.5,89.7102)" pers-center="0,0" pers-size="0,0" pers-start="0,0" pers-end="0,0" locked="0" mesh="" flag=""/>
            <path id="shapePath3" d="M4.52174,76.5218 L36.4783,76.5218 L36.4783,102.899 L4.52174,102.899 L4.52174,76.5218 Z" style="stroke:#000000;stroke-opacity:0.992157;stroke-width:0.5;stroke-linejoin:;stroke-miterlimit:2;stroke-linecap:butt;fill-rule:evenodd;fill:#47a3f5;fill-opacity:0.992157;"/>
        </g>
        <g id="Shape4">
            <desc shapeID="4" type="0" basicInfo-basicType="0" basicInfo-roundedRectRadius="12" basicInfo-polygonSides="6" basicInfo-starPoints="5" bounding="rect(-20.2163,-20.7089,40.4326,41.4178)" text="" font-familyName="" font-pixelSize="20" font-bold="0" font-underline="0" font-alignment="1" strokeStyle="0" markerStart="0" markerEnd="0" shadowEnabled="0" shadowOffsetX="0" shadowOffsetY="2" shadowBlur="4" shadowOpacity="160" blurEnabled="0" blurRadius="4" transform="matrix(1,0,0,1,135.5,29)" pers-center="0,0" pers-size="0,0" pers-start="0,0" pers-end="0,0" locked="0" mesh="" flag=""/>
            <path id="shapePath4" d="M155.716,24.468 L136.117,49.7089 L115.284,33.532 L134.883,8.29112 L155.716,24.468 Z" style="stroke:#000000;stroke-opacity:0.992157;stroke-width:0.5;stroke-linejoin:;stroke-miterlimit:2;stroke-linecap:butt;fill-rule:evenodd;fill:#47a3f5;fill-opacity:0.992157;"/>
        </g>
        <g id="Shape5">
            <desc shapeID="5" type="0" basicInfo-basicType="0" basicInfo-roundedRectRadius="12" basicInfo-polygonSides="6" basicInfo-starPoints="5" bounding="rect(-15.9783,-13.1884,31.9565,26.3768)" text="" font-familyName="" font-pixelSize="20" font-bold="0" font-underline="0" font-alignment="1" strokeStyle="0" markerStart="0" markerEnd="0" shadowEnabled="0" shadowOffsetX="0" shadowOffsetY="2" shadowBlur="4" shadowOpacity="160" blurEnabled="0" blurRadius="4" transform="matrix(1,0,0,1,159.5,90.5001)" pers-center="0,0" pers-size="0,0" pers-start="0,0" pers-end="0,0" locked="0" mesh="" flag=""/>
            <path id="shapePath5" d="M143.522,77.3117 L175.478,77.3117 L175.478,103.688 L143.522,103.688 L143.522,77.3117 Z" style="stroke:#000000;stroke-opacity:0.992157;stroke-width:0.5;stroke-linejoin:;stroke-miterlimit:2;stroke-linecap:butt;fill-rule:evenodd;fill:#47a3f5;fill-opacity:0.992157;"/>
        </g>
        <g id="Shape6">
            <desc shapeID="6" type="0" basicInfo-basicType="0" basicInfo-roundedRectRadius="12" basicInfo-polygonSides="6" basicInfo-starPoints="5" bounding="rect(-20.5063,-20.6946,41.0125,41.3892)" text="" font-familyName="" font-pixelSize="20" font-bold="0" font-underline="0" font-alignment="1" strokeStyle="0" markerStart="0" markerEnd="0" shadowEnabled="0" shadowOffsetX="0" shadowOffsetY="2" shadowBlur="4" shadowOpacity="160" blurEnabled="0" blurRadius="4" transform="matrix(1,0,0,1,132.5,144)" pers-center="0,0" pers-size="0,0" pers-start="0,0" pers-end="0,0" locked="0" mesh="" flag=""/>
            <path id="shapePath6" d="M131.514,123.305 L153.006,146.955 L133.486,164.695 L111.994,141.045 L131.514,123.305 Z" style="stroke:#000000;stroke-opacity:0.992157;stroke-width:0.5;stroke-linejoin:;stroke-miterlimit:2;stroke-linecap:butt;fill-rule:evenodd;fill:#47a3f5;fill-opacity:0.992157;"/>
        </g>
        <g id="Shape7">
            <desc shapeID="7" type="0" basicInfo-basicType="0" basicInfo-roundedRectRadius="12" basicInfo-polygonSides="6" basicInfo-starPoints="5" bounding="rect(-20.3906,-20.7164,40.7811,41.4328)" text="" font-familyName="" font-pixelSize="20" font-bold="0" font-underline="0" font-alignment="1" strokeStyle="0" markerStart="0" markerEnd="0" shadowEnabled="0" shadowOffsetX="0" shadowOffsetY="2" shadowBlur="4" shadowOpacity="160" blurEnabled="0" blurRadius="4" transform="matrix(1,0,0,1,49,28.5)" pers-center="0,0" pers-size="0,0" pers-start="0,0" pers-end="0,0" locked="0" mesh="" flag=""/>
            <path id="shapePath7" d="M48.7374,7.78359 L69.3905,32.1694 L49.2626,49.2164 L28.6094,24.8306 L48.7374,7.78359 Z" style="stroke:#000000;stroke-opacity:0.992157;stroke-width:0.5;stroke-linejoin:;stroke-miterlimit:2;stroke-linecap:butt;fill-rule:evenodd;fill:#47a3f5;fill-opacity:0.992157;"/>
        </g>
        <g id="Shape8">
            <desc shapeID="8" type="0" basicInfo-basicType="0" basicInfo-roundedRectRadius="12" basicInfo-polygonSides="6" basicInfo-starPoints="5" bounding="rect(-20.2163,-20.7089,40.4326,41.4178)" text="" font-familyName="" font-pixelSize="20" font-bold="0" font-underline="0" font-alignment="1" strokeStyle="0" markerStart="0" markerEnd="0" shadowEnabled="0" shadowOffsetX="0" shadowOffsetY="2" shadowBlur="4" shadowOpacity="160" blurEnabled="0" blurRadius="4" transform="matrix(1,0,0,1,50.5,146.5)" pers-center="0,0" pers-size="0,0" pers-start="0,0" pers-end="0,0" locked="0" mesh="" flag=""/>
            <path id="shapePath8" d="M70.7163,141.968 L51.1174,167.209 L30.2837,151.032 L49.8825,125.791 L70.7163,141.968 Z" style="stroke:#000000;stroke-opacity:0.992157;stroke-width:0.5;stroke-linejoin:;stroke-miterlimit:2;stroke-linecap:butt;fill-rule:evenodd;fill:#47a3f5;fill-opacity:0.992157;"/>
        </g>
        <g id="Shape9">
            <desc shapeID="9" type="0" basicInfo-basicType="0" basicInfo-roundedRectRadius="12" basicInfo-polygonSides="6" basicInfo-starPoints="5" bounding="rect(-65.4005,-65.4005,130.801,130.801)" text="" font-familyName="" font-pixelSize="20" font-bold="0" font-underline="0" font-alignment="1" strokeStyle="0" markerStart="0" markerEnd="0" shadowEnabled="0" shadowOffsetX="0" shadowOffsetY="2" shadowBlur="4" shadowOpacity="160" blurEnabled="0" blurRadius="4" transform="matrix(1,0,0,1,90.75,87.75)" pers-center="0,0" pers-size="0,0" pers-start="0,0" pers-end="0,0" locked="0" mesh="" flag=""/>
            <path id="shapePath9" d="M156.15,87.75 C156.15,123.87 126.87,153.15 90.75,153.15 C54.6303,153.15 25.3495,123.87 25.3495,87.75 C25.3495,51.6303 54.6303,22.3495 90.75,22.3495 C126.87,22.3495 156.15,51.6303 156.15,87.75 Z" style="stroke:#000000;stroke-opacity:1;stroke-width:0.5;stroke-linejoin:;stroke-miterlimit:2;stroke-linecap:butt;fill-rule:evenodd;fill:#47a3f5;fill-opacity:1;"/>
        </g>
        <g id="Shape10">
            <desc shapeID="10" type="0" basicInfo-basicType="0" basicInfo-roundedRectRadius="12" basicInfo-polygonSides="6" basicInfo-starPoints="5" bounding="rect(-50.8484,-38.4544,101.697,76.9088)" text="" font-familyName="" font-pixelSize="20" font-bold="0" font-underline="0" font-alignment="1" strokeStyle="0" markerStart="0" markerEnd="0" shadowEnabled="0" shadowOffsetX="0" shadowOffsetY="2" shadowBlur="4" shadowOpacity="160" blurEnabled="0" blurRadius="4" transform="matrix(1,0,0,1,92.2845,83.0584)" pers-center="0,0" pers-size="0,0" pers-start="0,0" pers-end="0,0" locked="0" mesh="" flag=""/>
            <path id="shapePath10" d="M132.508,99.2951 C130.775,98.5966 129.021,97.0485 127.378,94.7682 C123.509,89.399 122.326,82.7357 124.313,77.5043 C126.044,72.9488 130.229,69.395 136.318,67.3097 C137.687,66.841 141.056,65.9885 142.464,65.7549 L143.133,65.6438 L142.13,73.8498 C141.578,78.3631 141.116,82.0686 141.103,82.0842 C141.091,82.1 140.518,81.9353 139.83,81.7185 C134.664,80.0897 129.765,80.7383 128.539,83.2133 C128.209,83.8785 128.197,85.0609 128.511,85.9121 C129.071,87.4298 131.268,89.6065 133.856,91.2059 C135.191,92.0315 138.291,93.6769 138.511,93.6769 C138.682,93.6769 138.672,93.9312 138.464,94.8788 C137.989,97.0425 137.023,98.6518 135.825,99.2716 C135.008,99.6948 133.526,99.7053 132.508,99.2954 L132.508,99.2951 M120.439,101.881 C117.762,94.4243 113.206,81.7364 110.314,73.6851 C107.422,65.6337 105.082,59.0107 105.113,58.9672 C105.145,58.9238 106.948,60.3744 109.12,62.1911 L113.07,65.494 L121.219,87.7702 C125.701,100.022 129.378,110.089 129.391,110.141 C129.403,110.193 128.489,111.406 127.359,112.836 L125.306,115.437 L120.439,101.881 M117.811,121.142 C115.466,116.038 108.623,97.8468 96.4638,64.3902 C92.7991,54.3068 89.828,46.0188 89.8615,45.9724 C89.895,45.9261 92.2535,48.039 95.1026,50.6678 L100.283,55.4473 L102.011,60.1089 C109.21,79.5229 120.399,110.284 121.949,114.924 L122.692,117.148 L122.115,117.889 C121.69,118.435 118.202,121.513 118.007,121.513 C117.993,121.513 117.904,121.346 117.811,121.142 M100.059,120.577 C97.6011,116.143 90.8799,93.185 88.1733,92.7763 C81.5963,92.4404 75.4072,90.0981 69.4202,89.9709 C69.1715,90.5442 68.8833,91.0905 68.5978,91.618 C63.2863,100.541 58.9484,111.934 54.1181,120.103 C50.6853,120.655 46.1051,120.983 41.4372,120.178 C41.3977,120.124 42.526,117.01 43.9447,113.26 C52.772,90.5077 62.0105,65.7356 70.1581,44.8406 C74.7662,44.8123 79.4544,44.2866 84.044,44.8998 C88.0126,52.0738 90.5435,60.2158 93.3998,67.6157 C99.6882,83.5069 105.503,99.6147 111.128,113.606 C111.59,114.595 113.888,120.892 113.821,120.985 C113.775,121.049 110.722,121.124 107.037,121.153 L100.336,121.205 L100.059,120.576 L100.059,120.577 M82.7899,55.581 C80.4374,56.5601 74.7302,57.9052 73.6339,59.4665 C72.3014,67.343 71.0195,73.0216 69.7524,80.2567 C75.3068,82.5358 80.6831,85.3758 86.6118,87.0364 L87.0285,87.0064 C85.5208,76.5362 83.9219,64.7276 82.7899,55.5812 L82.7899,55.581 Z" style="stroke:#000000;stroke-opacity:1;stroke-width:0.5;stroke-linejoin:miter;stroke-miterlimit:2;stroke-linecap:butt;fill-rule:nonzero;fill:#ffffff;fill-opacity:1;"/>
        </g>
    </g>
</svg>
